<svg width="15" height="16" viewBox="0 0 15 16" fill="none" xmlns="http://www.w3.org/2000/svg">
<path d="M10.7539 8.625H8.70312V14.75H5.96875V8.625H3.75391V6.08203H5.96875V4.16797C5.96875 3.4388 6.10547 2.81901 6.37891 2.30859C6.65234 1.79818 7.03516 1.41536 7.52734 1.16016C8.03776 0.886719 8.62109 0.75 9.27734 0.75C9.56901 0.75 9.87891 0.768229 10.207 0.804688C10.5352 0.822917 10.7904 0.85026 10.9727 0.886719L11.2461 0.914062V3.07422H10.1523C9.64193 3.07422 9.26823 3.21094 9.03125 3.48438C8.8125 3.73958 8.70312 4.05859 8.70312 4.44141V6.08203H11.1367L10.7539 8.625Z" fill="white"/>
</svg>
