<svg width="15" height="15" viewBox="0 0 15 15" fill="none" xmlns="http://www.w3.org/2000/svg">
<path d="M14.7432 2.68295C14.6067 1.40373 13.5964 0.393219 12.317 0.256805C9.10881 -0.0856018 5.89119 -0.0856018 2.68307 0.256805C1.40373 0.393333 0.393333 1.40373 0.256805 2.68295C-0.0856018 5.89108 -0.0856018 9.10881 0.256805 12.3169C0.393333 13.5963 1.40373 14.6067 2.68295 14.7432C5.89108 15.0856 9.10881 15.0856 12.317 14.7432C13.5964 14.6067 14.6067 13.5963 14.7432 12.3169C15.0856 9.10881 15.0856 5.89119 14.7432 2.68295Z" fill="url(#paint0_radial)"/>
<path d="M13.9273 3.2255C13.8062 2.09036 12.9097 1.19371 11.7745 1.07252C8.92763 0.768795 6.07233 0.768795 3.2255 1.07252C2.09036 1.19371 1.19371 2.09036 1.07252 3.2255C0.768795 6.07233 0.768795 8.92763 1.07252 11.7743C1.19371 12.9096 2.09036 13.8062 3.2255 13.9273C6.07233 14.2312 8.92763 14.2312 11.7743 13.9273C12.9096 13.8062 13.8062 12.9096 13.9273 11.7743C14.2312 8.92763 14.2312 6.07233 13.9273 3.2255Z" fill="url(#paint1_linear)"/>
<path d="M0.224731 12.006C0.235031 12.1097 0.245674 12.2133 0.256775 12.317C0.393303 13.5963 1.4037 14.6067 2.68304 14.7432C5.89116 15.0856 9.10889 15.0856 12.317 14.7432C13.5964 14.6067 14.6066 13.5963 14.7432 12.317C14.7543 12.2133 14.7649 12.1097 14.7753 12.006H0.224731Z" fill="url(#paint2_linear)"/>
<path d="M14.7432 12.3169C14.9272 10.5931 15.0121 8.86652 14.9984 7.14018L11.5697 3.71153C11.1414 3.22253 10.5157 2.91731 9.78057 2.89088C8.26869 2.8364 6.75201 2.83915 5.2399 2.89111C3.98402 2.93437 3.1058 3.77848 2.88058 5.01914C2.84087 5.23818 2.81707 5.46008 2.78583 5.68072V9.31788C2.80311 9.43575 2.82851 9.55306 2.83641 9.67162C2.88676 10.4262 3.1969 11.0726 3.69346 11.5099L7.18253 14.9988C8.8948 15.0109 10.6072 14.9257 12.317 14.7432C13.5964 14.6067 14.6067 13.5963 14.7432 12.3169Z" fill="url(#paint3_linear)"/>
<path d="M14.7432 12.3171C14.6068 13.5962 13.5962 14.6068 12.3171 14.7432C10.6074 14.9256 8.8947 15.0109 7.18266 14.9989L3.69885 11.5151C4.10271 11.8686 4.62914 12.0838 5.24003 12.1068C6.75179 12.1636 8.26882 12.1621 9.78059 12.1077C11.1479 12.0582 12.1374 11.0462 12.1801 9.67887C12.2256 8.22707 12.2256 6.7715 12.1801 5.3197C12.1606 4.6889 11.9392 4.13387 11.572 3.71387L14.9985 7.14034C15.012 8.86646 14.9271 10.5933 14.7432 12.3171Z" fill="url(#paint4_linear)"/>
<path d="M9.26993 5.87572C8.8307 5.39748 8.20048 5.09741 7.49998 5.09741C6.17316 5.09741 5.09741 6.17316 5.09741 7.49998C5.09741 8.20048 5.39748 8.8307 5.87572 9.26993L11.4345 14.8287C11.7287 14.803 12.0229 14.7745 12.3169 14.7432C13.5963 14.6067 14.6067 13.5963 14.7432 12.3169C14.7745 12.0229 14.803 11.7287 14.8287 11.4345L9.26993 5.87572Z" fill="url(#paint5_linear)"/>
<path d="M14.9709 9.11577L10.4972 4.64217C10.3928 4.50518 10.2284 4.41626 10.0429 4.41626C9.72726 4.41626 9.47125 4.67215 9.47125 4.98789C9.47125 5.1734 9.56017 5.33785 9.69716 5.44222L14.8909 10.6361C14.9262 10.1295 14.9529 9.62263 14.9709 9.11577Z" fill="url(#paint6_linear)"/>
<path d="M2.78583 5.68072C2.81707 5.46008 2.84087 5.23818 2.88058 5.01914C3.10569 3.77848 3.98402 2.93437 5.2399 2.89111C6.75201 2.83915 8.26869 2.8364 9.78057 2.89088C11.1475 2.94009 12.1374 3.9522 12.1801 5.31954C12.2255 6.77146 12.2255 8.22691 12.1801 9.67883C12.1374 11.0462 11.1478 12.0582 9.78069 12.1075C8.26881 12.1621 6.75178 12.1635 5.24001 12.1067C3.8729 12.0553 2.92785 11.0409 2.83641 9.6715C2.82851 9.55306 2.80311 9.43564 2.78583 9.31777C2.78583 8.10538 2.78583 6.89299 2.78583 5.68072ZM7.50125 11.2971C8.19316 11.2971 8.88576 11.3179 9.57675 11.2923C10.6602 11.2522 11.3266 10.6056 11.3518 9.52319C11.3832 8.1745 11.3832 6.82398 11.3518 5.47518C11.3266 4.39303 10.6597 3.73133 9.57675 3.70833C8.2022 3.67926 6.82616 3.67949 5.45161 3.70833C4.3769 3.73088 3.70856 4.37918 3.67938 5.44943C3.6423 6.81517 3.6423 8.18331 3.67938 9.54905C3.70856 10.6192 4.3769 11.2525 5.45173 11.2923C6.13403 11.3177 6.81804 11.2971 7.50125 11.2971Z" fill="url(#paint7_linear)"/>
<path d="M2.78583 5.68072C2.81707 5.46008 2.84087 5.23818 2.88058 5.01914C3.10569 3.77848 3.98402 2.93437 5.2399 2.89111C6.75201 2.83915 8.26869 2.8364 9.78057 2.89088C11.1475 2.94009 12.1374 3.9522 12.1801 5.31954C12.2255 6.77146 12.2255 8.22691 12.1801 9.67883C12.1374 11.0462 11.1478 12.0582 9.78069 12.1075C8.26881 12.1621 6.75178 12.1635 5.24001 12.1067C3.8729 12.0553 2.92785 11.0409 2.83641 9.6715C2.82851 9.55306 2.80311 9.43564 2.78583 9.31777C2.78583 8.10538 2.78583 6.89299 2.78583 5.68072ZM7.50125 11.2971C8.19316 11.2971 8.88576 11.3179 9.57675 11.2923C10.6602 11.2522 11.3266 10.6056 11.3518 9.52319C11.3832 8.1745 11.3832 6.82398 11.3518 5.47518C11.3266 4.39303 10.6597 3.73133 9.57675 3.70833C8.2022 3.67926 6.82616 3.67949 5.45161 3.70833C4.3769 3.73088 3.70856 4.37918 3.67938 5.44943C3.6423 6.81517 3.6423 8.18331 3.67938 9.54905C3.70856 10.6192 4.3769 11.2525 5.45173 11.2923C6.13403 11.3177 6.81804 11.2971 7.50125 11.2971Z" fill="white"/>
<path d="M7.49998 5.09753C6.17316 5.09753 5.09741 6.17316 5.09741 7.49999C5.09741 8.82694 6.17316 9.90257 7.49998 9.90257C8.82693 9.90257 9.90256 8.82694 9.90256 7.49999C9.90256 6.17316 8.82693 5.09753 7.49998 5.09753ZM7.49998 9.07539C6.62989 9.07539 5.92459 8.37009 5.92459 7.49999C5.92459 6.6299 6.62989 5.9246 7.49998 5.9246C8.37008 5.9246 9.07538 6.6299 9.07538 7.49999C9.07538 8.37009 8.37008 9.07539 7.49998 9.07539Z" fill="white"/>
<path d="M10.6144 4.98789C10.6144 5.30352 10.3585 5.55941 10.0429 5.55941C9.72726 5.55941 9.47125 5.30352 9.47125 4.98789C9.47125 4.67215 9.72726 4.41626 10.0429 4.41626C10.3585 4.41626 10.6144 4.67215 10.6144 4.98789Z" fill="white"/>
<defs>
<radialGradient id="paint0_radial" cx="0" cy="0" r="1" gradientUnits="userSpaceOnUse" gradientTransform="translate(3.07492 13.1088) scale(16.5424)">
<stop stop-color="#FAE100"/>
<stop offset="0.0544" stop-color="#FADC04"/>
<stop offset="0.1167" stop-color="#FBCE0E"/>
<stop offset="0.1829" stop-color="#FCB720"/>
<stop offset="0.2514" stop-color="#FE9838"/>
<stop offset="0.3054" stop-color="#FF7950"/>
<stop offset="0.4922" stop-color="#FF1C74"/>
<stop offset="1" stop-color="#6C1CD1"/>
</radialGradient>
<linearGradient id="paint1_linear" x1="5.75309" y1="6.51735" x2="-19.6587" y2="-7.77677" gradientUnits="userSpaceOnUse">
<stop stop-color="#A1B5D8" stop-opacity="0"/>
<stop offset="0.3094" stop-color="#90A2BD" stop-opacity="0.309804"/>
<stop offset="0.7554" stop-color="#7C8B9C" stop-opacity="0.756863"/>
<stop offset="1" stop-color="#748290"/>
</linearGradient>
<linearGradient id="paint2_linear" x1="7.49998" y1="13.2412" x2="7.49998" y2="15.5793" gradientUnits="userSpaceOnUse">
<stop stop-color="#FAE100" stop-opacity="0"/>
<stop offset="0.3068" stop-color="#FCA800" stop-opacity="0.305882"/>
<stop offset="0.6275" stop-color="#FE7300" stop-opacity="0.627451"/>
<stop offset="0.8685" stop-color="#FF5200" stop-opacity="0.866667"/>
<stop offset="1" stop-color="#FF4500"/>
</linearGradient>
<linearGradient id="paint3_linear" x1="6.64664" y1="6.62542" x2="2.93439" y2="2.91315" gradientUnits="userSpaceOnUse">
<stop stop-color="#833AB4" stop-opacity="0"/>
<stop offset="1" stop-color="#833AB4"/>
</linearGradient>
<linearGradient id="paint4_linear" x1="10.2803" y1="13.7194" x2="8.42742" y2="4.98453" gradientUnits="userSpaceOnUse">
<stop stop-color="#833AB4" stop-opacity="0"/>
<stop offset="1" stop-color="#833AB4"/>
</linearGradient>
<linearGradient id="paint5_linear" x1="10.9853" y1="10.9853" x2="3.54318" y2="3.54317" gradientUnits="userSpaceOnUse">
<stop stop-color="#833AB4" stop-opacity="0"/>
<stop offset="1" stop-color="#833AB4"/>
</linearGradient>
<linearGradient id="paint6_linear" x1="11.5373" y1="6.4823" x2="9.07635" y2="4.02134" gradientUnits="userSpaceOnUse">
<stop stop-color="#833AB4" stop-opacity="0"/>
<stop offset="1" stop-color="#833AB4"/>
</linearGradient>
<linearGradient id="paint7_linear" x1="10.4783" y1="4.54245" x2="4.41042" y2="10.6103" gradientUnits="userSpaceOnUse">
<stop stop-color="#833AB4"/>
<stop offset="0.0922" stop-color="#9C3495"/>
<stop offset="0.2927" stop-color="#DC2546"/>
<stop offset="0.392" stop-color="#FD1D1D"/>
<stop offset="0.5589" stop-color="#FC6831"/>
<stop offset="0.6887" stop-color="#FC9B40"/>
<stop offset="0.7521" stop-color="#FCAF45"/>
<stop offset="0.7806" stop-color="#FDB750"/>
<stop offset="0.8656" stop-color="#FECB6A"/>
<stop offset="0.9415" stop-color="#FFD87A"/>
<stop offset="1" stop-color="#FFDC80"/>
</linearGradient>
</defs>
</svg>
