<svg width="15" height="15" viewBox="0 0 15 15" fill="none" xmlns="http://www.w3.org/2000/svg">
<path d="M5.12695 5.00195C5.79102 4.33789 6.5918 4.00586 7.5293 4.00586C8.4668 4.00586 9.25781 4.33789 9.90234 5.00195C10.5664 5.64648 10.8984 6.4375 10.8984 7.375C10.8984 8.3125 10.5664 9.11328 9.90234 9.77734C9.25781 10.4219 8.4668 10.7441 7.5293 10.7441C6.5918 10.7441 5.79102 10.4219 5.12695 9.77734C4.48242 9.11328 4.16016 8.3125 4.16016 7.375C4.16016 6.4375 4.48242 5.64648 5.12695 5.00195ZM5.97656 8.92773C6.40625 9.35742 6.92383 9.57227 7.5293 9.57227C8.13477 9.57227 8.65234 9.35742 9.08203 8.92773C9.51172 8.49805 9.72656 7.98047 9.72656 7.375C9.72656 6.76953 9.51172 6.25195 9.08203 5.82227C8.65234 5.39258 8.13477 5.17773 7.5293 5.17773C6.92383 5.17773 6.40625 5.39258 5.97656 5.82227C5.54688 6.25195 5.33203 6.76953 5.33203 7.375C5.33203 7.98047 5.54688 8.49805 5.97656 8.92773ZM11.5723 3.33203C11.7285 3.46875 11.8066 3.64453 11.8066 3.85938C11.8066 4.07422 11.7285 4.25977 11.5723 4.41602C11.4355 4.57227 11.2598 4.65039 11.0449 4.65039C10.8301 4.65039 10.6445 4.57227 10.4883 4.41602C10.332 4.25977 10.2539 4.07422 10.2539 3.85938C10.2539 3.64453 10.332 3.46875 10.4883 3.33203C10.6445 3.17578 10.8301 3.09766 11.0449 3.09766C11.2598 3.09766 11.4355 3.17578 11.5723 3.33203ZM14.0625 4.67969C14.082 5.20703 14.0918 6.10547 14.0918 7.375C14.0918 8.64453 14.082 9.54297 14.0625 10.0703C14.0039 11.2617 13.6426 12.1895 12.9785 12.8535C12.334 13.498 11.416 13.8398 10.2246 13.8789C9.69727 13.918 8.79883 13.9375 7.5293 13.9375C6.25977 13.9375 5.36133 13.918 4.83398 13.8789C3.64258 13.8203 2.72461 13.4688 2.08008 12.8242C1.82617 12.5898 1.62109 12.3164 1.46484 12.0039C1.30859 11.6914 1.19141 11.3887 1.11328 11.0957C1.05469 10.8027 1.02539 10.4609 1.02539 10.0703C0.986328 9.54297 0.966797 8.64453 0.966797 7.375C0.966797 6.10547 0.986328 5.19727 1.02539 4.65039C1.08398 3.47852 1.43555 2.57031 2.08008 1.92578C2.72461 1.26172 3.64258 0.900391 4.83398 0.841797C5.36133 0.822266 6.25977 0.8125 7.5293 0.8125C8.79883 0.8125 9.69727 0.822266 10.2246 0.841797C11.416 0.900391 12.334 1.26172 12.9785 1.92578C13.6426 2.57031 14.0039 3.48828 14.0625 4.67969ZM12.6562 11.2422C12.7148 11.0859 12.7637 10.8906 12.8027 10.6562C12.8418 10.4023 12.8711 10.1094 12.8906 9.77734C12.9102 9.42578 12.9199 9.14258 12.9199 8.92773C12.9199 8.71289 12.9199 8.41016 12.9199 8.01953C12.9199 7.62891 12.9199 7.41406 12.9199 7.375C12.9199 7.31641 12.9199 7.10156 12.9199 6.73047C12.9199 6.33984 12.9199 6.03711 12.9199 5.82227C12.9199 5.60742 12.9102 5.33398 12.8906 5.00195C12.8711 4.65039 12.8418 4.35742 12.8027 4.12305C12.7637 3.86914 12.7148 3.66406 12.6562 3.50781C12.4219 2.90234 12.002 2.48242 11.3965 2.24805C11.2402 2.18945 11.0352 2.14062 10.7812 2.10156C10.5469 2.0625 10.2539 2.0332 9.90234 2.01367C9.57031 1.99414 9.29688 1.98438 9.08203 1.98438C8.88672 1.98438 8.58398 1.98438 8.17383 1.98438C7.7832 1.98438 7.56836 1.98438 7.5293 1.98438C7.49023 1.98438 7.27539 1.98438 6.88477 1.98438C6.49414 1.98438 6.19141 1.98438 5.97656 1.98438C5.76172 1.98438 5.47852 1.99414 5.12695 2.01367C4.79492 2.0332 4.50195 2.0625 4.24805 2.10156C4.01367 2.14062 3.81836 2.18945 3.66211 2.24805C3.05664 2.48242 2.63672 2.90234 2.40234 3.50781C2.34375 3.66406 2.29492 3.86914 2.25586 4.12305C2.2168 4.35742 2.1875 4.65039 2.16797 5.00195C2.14844 5.33398 2.13867 5.60742 2.13867 5.82227C2.13867 6.01758 2.13867 6.32031 2.13867 6.73047C2.13867 7.12109 2.13867 7.33594 2.13867 7.375C2.13867 7.45312 2.13867 7.63867 2.13867 7.93164C2.13867 8.20508 2.13867 8.43945 2.13867 8.63477C2.13867 8.81055 2.13867 9.04492 2.13867 9.33789C2.1582 9.63086 2.17773 9.88477 2.19727 10.0996C2.2168 10.2949 2.24609 10.5 2.28516 10.7148C2.32422 10.9297 2.36328 11.1055 2.40234 11.2422C2.65625 11.8477 3.07617 12.2676 3.66211 12.502C3.81836 12.5605 4.01367 12.6094 4.24805 12.6484C4.50195 12.6875 4.79492 12.7168 5.12695 12.7363C5.47852 12.7559 5.75195 12.7656 5.94727 12.7656C6.16211 12.7656 6.46484 12.7656 6.85547 12.7656C7.26562 12.7656 7.49023 12.7656 7.5293 12.7656C7.58789 12.7656 7.80273 12.7656 8.17383 12.7656C8.56445 12.7656 8.86719 12.7656 9.08203 12.7656C9.29688 12.7656 9.57031 12.7559 9.90234 12.7363C10.2539 12.7168 10.5469 12.6875 10.7812 12.6484C11.0352 12.6094 11.2402 12.5605 11.3965 12.502C12.002 12.248 12.4219 11.8281 12.6562 11.2422Z" fill="white"/>
</svg>
