<svg width="15" height="15" viewBox="0 0 15 15" fill="none" xmlns="http://www.w3.org/2000/svg">
<path d="M13.6816 1.78711H1.31835C1.11542 1.78711 0.925425 1.837 0.75354 1.91924L7.4707 8.6364L8.97624 7.18951C8.97624 7.18951 8.97635 7.18937 8.97638 7.18931C8.97641 7.18925 8.97653 7.18919 8.97653 7.18919L14.2467 1.91936C14.0747 1.83706 13.8846 1.78711 13.6816 1.78711Z" fill="white"/>
<path d="M14.868 2.54083L9.90857 7.50003L14.8679 12.4593C14.9501 12.2874 15 12.0974 15 11.8945V3.10544C15 2.90262 14.9502 2.71266 14.868 2.54083Z" fill="white"/>
<path d="M0.132129 2.54071C0.0498926 2.7126 0 2.90259 0 3.10552V11.8946C0 12.0974 0.049834 12.2874 0.132012 12.4593L5.09147 7.50006L0.132129 2.54071Z" fill="white"/>
<path d="M9.28719 8.12155L7.78144 9.56861C7.6956 9.65445 7.58316 9.69737 7.47075 9.69737C7.35834 9.69737 7.24587 9.65445 7.16006 9.56861L5.71291 8.12149L0.753357 13.0807C0.925271 13.163 1.11538 13.213 1.31838 13.213H13.6817C13.8846 13.213 14.0746 13.1631 14.2465 13.0808L9.28719 8.12155Z" fill="white"/>
</svg>
