<svg width="18" height="18" viewBox="0 0 18 18" fill="none" xmlns="http://www.w3.org/2000/svg">
<path d="M9 9.74088C11.6899 9.74088 13.8705 7.56031 13.8705 4.87042C13.8705 2.18053 11.6899 0 9 0C6.31011 0 4.12958 2.18057 4.12958 4.87046C4.13288 7.55894 6.31151 9.73757 9 9.74088ZM9 2.2479C10.4484 2.2479 11.6226 3.42204 11.6226 4.87046C11.6226 6.31887 10.4484 7.49301 9 7.49301C7.55158 7.49301 6.37744 6.31887 6.37744 4.87046C6.37744 3.42204 7.55161 2.2479 9 2.2479Z" fill="#FF9800"/>
<path d="M13.7708 12.0487C14.3001 11.7001 14.619 11.109 14.6198 10.4752C14.6272 9.94918 14.3303 9.46616 13.8577 9.23508C13.3722 8.99256 12.791 9.04717 12.3591 9.37596C10.3577 10.8351 7.64311 10.8351 5.64168 9.37596C5.20917 9.04889 4.62897 8.99435 4.14307 9.23508C3.6707 9.46613 3.37373 9.94861 3.38029 10.4744C3.38142 11.1081 3.70023 11.699 4.22926 12.0479C4.90799 12.4993 5.64712 12.8525 6.42472 13.097C6.55661 13.1379 6.69271 13.1759 6.8331 13.2109L4.56873 15.4251C3.97472 16.0014 3.96036 16.9501 4.5367 17.5442C5.11304 18.1382 6.06175 18.1525 6.6558 17.5762C6.66816 17.5642 6.68031 17.552 6.69225 17.5396L9.00011 15.1508L11.3125 17.5441C11.8883 18.1385 12.8371 18.1536 13.4315 17.5778C14.026 17.0019 14.0411 16.0532 13.4652 15.4587C13.4532 15.4463 13.4409 15.4341 13.4285 15.422L11.1678 13.2101C11.3082 13.1741 11.4448 13.1359 11.5777 13.0955C12.3544 12.8519 13.0929 12.4995 13.7708 12.0487Z" fill="#FF9800"/>
</svg>
