<svg width="8" height="18" viewBox="0 0 8 18" fill="none" xmlns="http://www.w3.org/2000/svg">
<g clip-path="url(#clip0)">
<path d="M3.6512 0.483175L0.0512152 5.60316C-0.0183846 5.70236 -0.0167846 5.82332 0.0544152 5.92124C0.126415 6.0198 0.257614 6.07996 0.400014 6.07996L7.59999 6.07996C7.74239 6.07996 7.87359 6.0198 7.94559 5.92124C7.98159 5.87132 7.99999 5.81564 7.99999 5.75996C7.99999 5.7062 7.98319 5.6518 7.94879 5.60316L4.3488 0.483175C4.2776 0.382695 4.1448 0.319975 4 0.319975C3.8552 0.319975 3.7224 0.382695 3.6512 0.483175Z" fill="#D8D8D8"/>
</g>
<g clip-path="url(#clip1)">
<path d="M4.3488 17.3168L7.94878 12.1968C8.01838 12.0976 8.01678 11.9766 7.94558 11.8787C7.87359 11.7801 7.74239 11.72 7.59999 11.72L0.400009 11.72C0.257609 11.72 0.12641 11.7801 0.05441 11.8787C0.0184102 11.9286 1.04789e-05 11.9843 1.04764e-05 12.04C1.04741e-05 12.0937 0.0168104 12.1481 0.0512104 12.1968L3.6512 17.3168C3.7224 17.4172 3.8552 17.48 4 17.48C4.1448 17.48 4.2776 17.4172 4.3488 17.3168Z" fill="#FC5741"/>
</g>
<defs>
<clipPath id="clip0">
<rect width="6.4" height="8" fill="white" transform="translate(0 6.39996) rotate(-90)"/>
</clipPath>
<clipPath id="clip1">
<rect width="6.4" height="8" fill="white" transform="translate(8 11.4) rotate(90)"/>
</clipPath>
</defs>
</svg>
