<svg width="8" height="18" viewBox="0 0 8 18" fill="none" xmlns="http://www.w3.org/2000/svg">
<g clip-path="url(#clip0)">
<path d="M4.3488 17.3168L7.94878 12.1968C8.01838 12.0976 8.01678 11.9767 7.94558 11.8788C7.87359 11.7802 7.74239 11.72 7.59999 11.72L0.400009 11.72C0.257609 11.72 0.12641 11.7802 0.05441 11.8788C0.0184102 11.9287 1.04789e-05 11.9844 1.04764e-05 12.04C1.04741e-05 12.0938 0.0168104 12.1482 0.0512104 12.1968L3.6512 17.3168C3.7224 17.4173 3.8552 17.48 4 17.48C4.1448 17.48 4.2776 17.4173 4.3488 17.3168Z" fill="#D8D8D8"/>
</g>
<g clip-path="url(#clip1)">
<path d="M3.6512 0.483235L0.0512152 5.60322C-0.0183846 5.70242 -0.0167846 5.82338 0.0544152 5.9213C0.126415 6.01986 0.257614 6.08002 0.400014 6.08002L7.59999 6.08002C7.74239 6.08002 7.87359 6.01986 7.94559 5.9213C7.98159 5.87138 7.99999 5.8157 7.99999 5.76002C7.99999 5.70626 7.98319 5.65186 7.94879 5.60322L4.3488 0.483235C4.2776 0.382756 4.1448 0.320036 4 0.320036C3.8552 0.320036 3.7224 0.382756 3.6512 0.483235Z" fill="#30C42D"/>
</g>
<defs>
<clipPath id="clip0">
<rect width="6.4" height="8" fill="white" transform="translate(8 11.4) rotate(90)"/>
</clipPath>
<clipPath id="clip1">
<rect width="6.4" height="8" fill="white" transform="translate(0 6.40002) rotate(-90)"/>
</clipPath>
</defs>
</svg>
