<svg width="748" height="475" viewBox="0 0 748 475" fill="none" xmlns="http://www.w3.org/2000/svg">
<rect x="2.5" y="0.5" width="745" height="474" rx="9.5" fill="white" stroke="#F7F7F7"/>
<path d="M41.624 37.36C40.008 37.36 38.536 36.984 37.208 36.232C35.88 35.464 34.84 34.416 34.088 33.088C33.336 31.744 32.96 30.256 32.96 28.624C32.96 26.128 33.784 24.04 35.432 22.36C37.096 20.68 39.16 19.84 41.624 19.84C43.672 19.84 45.44 20.456 46.928 21.688C48.416 22.92 49.36 24.536 49.76 26.536H46.112C45.888 25.88 45.56 25.312 45.128 24.832C44.696 24.336 44.176 23.96 43.568 23.704C42.976 23.432 42.328 23.296 41.624 23.296C40.2 23.296 39.008 23.808 38.048 24.832C37.104 25.84 36.632 27.104 36.632 28.624C36.632 30.128 37.104 31.384 38.048 32.392C39.008 33.4 40.2 33.904 41.624 33.904C42.728 33.904 43.68 33.592 44.48 32.968C45.28 32.344 45.832 31.496 46.136 30.424H49.808C49.424 32.504 48.48 34.184 46.976 35.464C45.488 36.728 43.704 37.36 41.624 37.36ZM65.1716 30.472C65.1716 30.808 65.1476 31.152 65.0996 31.504H55.3076C55.4516 32.384 55.7956 33.064 56.3396 33.544C56.8996 34.008 57.6116 34.24 58.4756 34.24C59.0676 34.24 59.6036 34.112 60.0836 33.856C60.5636 33.584 60.9396 33.216 61.2116 32.752H64.9076C64.4276 34.16 63.6116 35.28 62.4596 36.112C61.3076 36.944 59.9796 37.36 58.4756 37.36C56.5556 37.36 54.9556 36.704 53.6756 35.392C52.3956 34.08 51.7556 32.456 51.7556 30.52C51.7556 29.752 51.8596 29.016 52.0676 28.312C52.2916 27.608 52.6036 26.976 53.0036 26.416C53.4196 25.856 53.8996 25.376 54.4436 24.976C54.9876 24.56 55.6036 24.24 56.2916 24.016C56.9796 23.792 57.7076 23.68 58.4756 23.68C59.7716 23.68 60.9316 23.984 61.9556 24.592C62.9956 25.2 63.7876 26.024 64.3316 27.064C64.8916 28.104 65.1716 29.24 65.1716 30.472ZM58.4756 26.656C57.6916 26.656 57.0276 26.872 56.4836 27.304C55.9556 27.736 55.5956 28.336 55.4036 29.104H61.6676C61.5076 28.576 61.2756 28.136 60.9716 27.784C60.6676 27.416 60.2996 27.136 59.8676 26.944C59.4516 26.752 58.9876 26.656 58.4756 26.656ZM76.6099 24.04V27.136H71.4979V37H68.0659V24.04H76.6099ZM84.9933 37.36C83.6653 37.36 82.4653 37.064 81.3933 36.472C80.3213 35.88 79.4813 35.064 78.8733 34.024C78.2813 32.968 77.9853 31.8 77.9853 30.52C77.9853 28.552 78.6493 26.92 79.9773 25.624C81.3053 24.328 82.9773 23.68 84.9933 23.68C86.9933 23.68 88.6573 24.328 89.9853 25.624C91.3133 26.92 91.9773 28.552 91.9773 30.52C91.9773 32.472 91.3053 34.104 89.9613 35.416C88.6333 36.712 86.9773 37.36 84.9933 37.36ZM84.9933 34.072C86.0013 34.072 86.8253 33.744 87.4653 33.088C88.1053 32.416 88.4253 31.56 88.4253 30.52C88.4253 29.48 88.1053 28.632 87.4653 27.976C86.8253 27.304 85.9933 26.968 84.9693 26.968C83.9613 26.968 83.1373 27.304 82.4973 27.976C81.8573 28.632 81.5373 29.48 81.5373 30.52C81.5373 31.032 81.6173 31.512 81.7773 31.96C81.9533 32.408 82.1933 32.784 82.4973 33.088C82.8013 33.392 83.1613 33.632 83.5773 33.808C84.0093 33.984 84.4813 34.072 84.9933 34.072ZM106.454 33.712H108.038V39.976H104.87V37H96.7581V39.976H93.5661V33.712H94.9101C95.4061 33.312 95.7661 32.536 95.9901 31.384C96.2301 30.232 96.5181 27.784 96.8541 24.04H106.454V33.712ZM99.9261 27.112C99.7981 29.08 99.6301 30.552 99.4221 31.528C99.2141 32.504 98.9181 33.232 98.5341 33.712H103.022V27.112H99.9261ZM119.31 24.04H122.814V37H119.31V32.032H114.606V37H111.102V24.04H114.606V28.84H119.31V24.04ZM130.58 24.04H137.036V37H133.676V32.512H131.636L129.14 37H125.396L128.3 31.912C127.596 31.528 127.052 31.024 126.668 30.4C126.3 29.776 126.116 29.08 126.116 28.312C126.116 27.096 126.54 26.08 127.388 25.264C128.236 24.448 129.3 24.04 130.58 24.04ZM131.228 29.824H133.676V26.824H131.228C130.716 26.824 130.308 26.968 130.004 27.256C129.716 27.528 129.572 27.888 129.572 28.336C129.572 28.624 129.636 28.88 129.764 29.104C129.892 29.328 130.076 29.504 130.316 29.632C130.572 29.76 130.876 29.824 131.228 29.824ZM154.216 24.04H157.648V37H140.8V24.04H144.232V33.784H147.568V24.04H150.904V33.784H154.216V24.04ZM169.611 24.04H173.115V37H169.611V32.032H164.907V37H161.403V24.04H164.907V28.84H169.611V24.04ZM186.306 24.04H188.274V37H184.89V30.136L178.866 37H176.874V24.04H180.258V30.832L186.306 24.04ZM204.615 30.472C204.615 30.808 204.591 31.152 204.543 31.504H194.751C194.895 32.384 195.239 33.064 195.783 33.544C196.343 34.008 197.055 34.24 197.919 34.24C198.511 34.24 199.047 34.112 199.527 33.856C200.007 33.584 200.383 33.216 200.655 32.752H204.351C203.871 34.16 203.055 35.28 201.903 36.112C200.751 36.944 199.423 37.36 197.919 37.36C195.999 37.36 194.399 36.704 193.119 35.392C191.839 34.08 191.199 32.456 191.199 30.52C191.199 29.752 191.303 29.016 191.511 28.312C191.735 27.608 192.047 26.976 192.447 26.416C192.863 25.856 193.343 25.376 193.887 24.976C194.431 24.56 195.047 24.24 195.735 24.016C196.423 23.792 197.151 23.68 197.919 23.68C199.215 23.68 200.375 23.984 201.399 24.592C202.439 25.2 203.231 26.024 203.775 27.064C204.335 28.104 204.615 29.24 204.615 30.472ZM197.919 26.656C197.135 26.656 196.471 26.872 195.927 27.304C195.399 27.736 195.039 28.336 194.847 29.104H201.111C200.951 28.576 200.719 28.136 200.415 27.784C200.111 27.416 199.743 27.136 199.311 26.944C198.895 26.752 198.431 26.656 197.919 26.656ZM224.284 24.04V27.184H220.06V37H216.628V27.184H212.404V24.04H224.284ZM239.097 30.472C239.097 30.808 239.073 31.152 239.025 31.504H229.233C229.377 32.384 229.721 33.064 230.265 33.544C230.825 34.008 231.537 34.24 232.401 34.24C232.993 34.24 233.529 34.112 234.009 33.856C234.489 33.584 234.865 33.216 235.137 32.752H238.833C238.353 34.16 237.537 35.28 236.385 36.112C235.233 36.944 233.905 37.36 232.401 37.36C230.481 37.36 228.881 36.704 227.601 35.392C226.321 34.08 225.681 32.456 225.681 30.52C225.681 29.752 225.785 29.016 225.993 28.312C226.217 27.608 226.529 26.976 226.929 26.416C227.345 25.856 227.825 25.376 228.369 24.976C228.913 24.56 229.529 24.24 230.217 24.016C230.905 23.792 231.633 23.68 232.401 23.68C233.697 23.68 234.857 23.984 235.881 24.592C236.921 25.2 237.713 26.024 238.257 27.064C238.817 28.104 239.097 29.24 239.097 30.472ZM232.401 26.656C231.617 26.656 230.953 26.872 230.409 27.304C229.881 27.736 229.521 28.336 229.329 29.104H235.593C235.433 28.576 235.201 28.136 234.897 27.784C234.593 27.416 234.225 27.136 233.793 26.944C233.377 26.752 232.913 26.656 232.401 26.656ZM250.199 24.04H253.703V37H250.199V32.032H245.495V37H241.991V24.04H245.495V28.84H250.199V24.04ZM269.221 33.712H270.805V39.976H267.637V37H259.525V39.976H256.333V33.712H257.677C258.173 33.312 258.533 32.536 258.757 31.384C258.997 30.232 259.285 27.784 259.621 24.04H269.221V33.712ZM262.693 27.112C262.565 29.08 262.397 30.552 262.189 31.528C261.981 32.504 261.685 33.232 261.301 33.712H265.789V27.112H262.693ZM286.234 30.472C286.234 30.808 286.21 31.152 286.162 31.504H276.37C276.514 32.384 276.858 33.064 277.402 33.544C277.962 34.008 278.674 34.24 279.538 34.24C280.13 34.24 280.666 34.112 281.146 33.856C281.626 33.584 282.002 33.216 282.274 32.752H285.97C285.49 34.16 284.674 35.28 283.522 36.112C282.37 36.944 281.042 37.36 279.538 37.36C277.618 37.36 276.018 36.704 274.738 35.392C273.458 34.08 272.818 32.456 272.818 30.52C272.818 29.752 272.922 29.016 273.13 28.312C273.354 27.608 273.666 26.976 274.066 26.416C274.482 25.856 274.962 25.376 275.506 24.976C276.05 24.56 276.666 24.24 277.354 24.016C278.042 23.792 278.77 23.68 279.538 23.68C280.834 23.68 281.994 23.984 283.018 24.592C284.058 25.2 284.85 26.024 285.394 27.064C285.954 28.104 286.234 29.24 286.234 30.472ZM279.538 26.656C278.754 26.656 278.09 26.872 277.546 27.304C277.018 27.736 276.658 28.336 276.466 29.104H282.73C282.57 28.576 282.338 28.136 282.034 27.784C281.73 27.416 281.362 27.136 280.93 26.944C280.514 26.752 280.05 26.656 279.538 26.656ZM297.336 24.04H300.84V37H297.336V32.032H292.632V37H289.128V24.04H292.632V28.84H297.336V24.04ZM315.927 33.784H317.607V39.976H314.439V37H304.599V24.04H308.031V33.784H312.495V24.04H315.927V33.784ZM330.064 24.04H332.032V37H328.648V30.136L322.624 37H320.632V24.04H324.016V30.832L330.064 24.04ZM345.229 24.04H347.197V37H343.813V30.136L337.789 37H335.797V24.04H339.181V30.832L345.229 24.04Z" fill="#252733"/>
<path d="M38.412 51.44H39.574V59H38.412V55.654H34.366V59H33.204V51.44H34.366V54.534H38.412V51.44ZM48.5213 51.44H49.4733V59H48.4793L48.3533 57.852C47.9987 58.272 47.5647 58.5987 47.0513 58.832C46.5473 59.056 45.992 59.168 45.3853 59.168C44.2747 59.168 43.346 58.7947 42.5993 58.048C41.8527 57.292 41.4793 56.3493 41.4793 55.22C41.4793 54.0907 41.8527 53.1527 42.5993 52.406C43.346 51.65 44.2747 51.272 45.3853 51.272C46.0013 51.272 46.5613 51.3887 47.0653 51.622C47.5787 51.8553 48.0127 52.182 48.3673 52.602L48.5213 51.44ZM43.4813 57.222C44.0133 57.754 44.6807 58.02 45.4833 58.02C46.286 58.02 46.9487 57.754 47.4713 57.222C47.994 56.69 48.2553 56.0227 48.2553 55.22C48.2553 54.4173 47.994 53.75 47.4713 53.218C46.9487 52.686 46.286 52.42 45.4833 52.42C44.6807 52.42 44.0133 52.6907 43.4813 53.232C42.9587 53.764 42.6973 54.4267 42.6973 55.22C42.6973 56.0133 42.9587 56.6807 43.4813 57.222ZM57.3165 57.894H61.2925V59H55.0345V58.622C56.4811 57.11 57.5311 55.9713 58.1845 55.206C58.8378 54.4313 59.2671 53.8433 59.4725 53.442C59.6778 53.0407 59.7805 52.63 59.7805 52.21C59.7805 51.9767 59.7385 51.762 59.6545 51.566C59.5798 51.37 59.4678 51.202 59.3185 51.062C59.1785 50.922 59.0058 50.8147 58.8005 50.74C58.5951 50.6653 58.3711 50.628 58.1285 50.628C57.7831 50.628 57.4798 50.698 57.2185 50.838C56.9571 50.9687 56.7565 51.1553 56.6165 51.398C56.4765 51.6407 56.4065 51.916 56.4065 52.224V52.448H55.2585V52.224C55.2585 51.692 55.3751 51.2207 55.6085 50.81C55.8511 50.3993 56.1871 50.082 56.6165 49.858C57.0551 49.634 57.5591 49.522 58.1285 49.522C58.9591 49.522 59.6358 49.774 60.1585 50.278C60.6811 50.7727 60.9425 51.4167 60.9425 52.21C60.9425 52.6673 60.8585 53.1013 60.6905 53.512C60.5225 53.9227 60.1771 54.4733 59.6545 55.164C59.1411 55.8453 58.3618 56.7553 57.3165 57.894ZM64.7719 57.894H68.7479V59H62.4899V58.622C63.9366 57.11 64.9866 55.9713 65.6399 55.206C66.2933 54.4313 66.7226 53.8433 66.9279 53.442C67.1333 53.0407 67.2359 52.63 67.2359 52.21C67.2359 51.9767 67.1939 51.762 67.1099 51.566C67.0353 51.37 66.9233 51.202 66.7739 51.062C66.6339 50.922 66.4613 50.8147 66.2559 50.74C66.0506 50.6653 65.8266 50.628 65.5839 50.628C65.2386 50.628 64.9353 50.698 64.6739 50.838C64.4126 50.9687 64.2119 51.1553 64.0719 51.398C63.9319 51.6407 63.8619 51.916 63.8619 52.224V52.448H62.7139V52.224C62.7139 51.692 62.8306 51.2207 63.0639 50.81C63.3066 50.3993 63.6426 50.082 64.0719 49.858C64.5106 49.634 65.0146 49.522 65.5839 49.522C66.4146 49.522 67.0913 49.774 67.6139 50.278C68.1366 50.7727 68.3979 51.4167 68.3979 52.21C68.3979 52.6673 68.3139 53.1013 68.1459 53.512C67.9779 53.9227 67.6326 54.4733 67.1099 55.164C66.5966 55.8453 65.8173 56.7553 64.7719 57.894ZM79.9675 51.44H80.6255V59H79.5055V53.596L75.0955 59H74.4095V51.44H75.5435V56.802L79.9675 51.44ZM89.4644 51.272C90.5751 51.272 91.4944 51.65 92.2224 52.406C92.9598 53.1527 93.3284 54.0953 93.3284 55.234C93.3284 56.3633 92.9644 57.3013 92.2364 58.048C91.5084 58.7947 90.5844 59.168 89.4644 59.168C88.4471 59.168 87.5791 58.8553 86.8604 58.23C86.1511 57.5953 85.7358 56.7787 85.6144 55.78H84.3264V59.014H83.1364V51.44H84.3264V54.66H85.6284C85.6844 54.1747 85.8198 53.722 86.0344 53.302C86.2584 52.882 86.5384 52.5227 86.8744 52.224C87.2104 51.9253 87.5978 51.692 88.0364 51.524C88.4844 51.356 88.9604 51.272 89.4644 51.272ZM89.4644 58.02C89.8378 58.02 90.1878 57.95 90.5144 57.81C90.8504 57.6607 91.1351 57.4647 91.3684 57.222C91.6018 56.9793 91.7838 56.6853 91.9144 56.34C92.0544 55.9947 92.1244 55.626 92.1244 55.234C92.1244 54.4313 91.8678 53.764 91.3544 53.232C90.8504 52.6907 90.2204 52.42 89.4644 52.42C88.6991 52.42 88.0644 52.6907 87.5604 53.232C87.0564 53.764 86.8044 54.4313 86.8044 55.234C86.8044 55.7567 86.9164 56.2327 87.1404 56.662C87.3738 57.082 87.6911 57.4133 88.0924 57.656C88.5031 57.8987 88.9604 58.02 89.4644 58.02ZM96.3232 51.44H101.279V59H100.089V52.476H97.3172L96.9252 56.298C96.8226 57.2967 96.5659 58.006 96.1552 58.426C95.7446 58.8367 95.1286 59.042 94.3072 59.042H94.0972V57.922H94.3632C94.7926 57.922 95.1192 57.8007 95.3432 57.558C95.5672 57.306 95.7072 56.9093 95.7632 56.368L96.3232 51.44ZM105.75 51.44H109.222V59H108.046V56.102H106.156L104.364 59H103.048L104.938 55.934C104.443 55.7753 104.051 55.5047 103.762 55.122C103.473 54.7393 103.328 54.2913 103.328 53.778C103.328 53.106 103.557 52.5507 104.014 52.112C104.471 51.664 105.05 51.44 105.75 51.44ZM105.848 54.954H108.046V52.588H105.848C105.456 52.588 105.139 52.7 104.896 52.924C104.653 53.1387 104.532 53.4233 104.532 53.778C104.532 54.1233 104.653 54.408 104.896 54.632C105.139 54.8467 105.456 54.954 105.848 54.954ZM117.056 57.894H121.032V59H114.774V58.622C116.221 57.11 117.271 55.9713 117.924 55.206C118.577 54.4313 119.007 53.8433 119.212 53.442C119.417 53.0407 119.52 52.63 119.52 52.21C119.52 51.9767 119.478 51.762 119.394 51.566C119.319 51.37 119.207 51.202 119.058 51.062C118.918 50.922 118.745 50.8147 118.54 50.74C118.335 50.6653 118.111 50.628 117.868 50.628C117.523 50.628 117.219 50.698 116.958 50.838C116.697 50.9687 116.496 51.1553 116.356 51.398C116.216 51.6407 116.146 51.916 116.146 52.224V52.448H114.998V52.224C114.998 51.692 115.115 51.2207 115.348 50.81C115.591 50.3993 115.927 50.082 116.356 49.858C116.795 49.634 117.299 49.522 117.868 49.522C118.699 49.522 119.375 49.774 119.898 50.278C120.421 50.7727 120.682 51.4167 120.682 52.21C120.682 52.6673 120.598 53.1013 120.43 53.512C120.262 53.9227 119.917 54.4733 119.394 55.164C118.881 55.8453 118.101 56.7553 117.056 57.894ZM126.079 59.168C124.978 59.168 124.101 58.734 123.447 57.866C122.803 56.998 122.481 55.822 122.481 54.338C122.481 52.854 122.803 51.6827 123.447 50.824C124.091 49.956 124.969 49.522 126.079 49.522C127.19 49.522 128.067 49.956 128.711 50.824C129.355 51.6827 129.677 52.854 129.677 54.338C129.677 55.822 129.351 56.998 128.697 57.866C128.053 58.734 127.181 59.168 126.079 59.168ZM126.079 58.062C126.835 58.062 127.428 57.7353 127.857 57.082C128.296 56.4193 128.515 55.5047 128.515 54.338C128.515 53.1807 128.296 52.2753 127.857 51.622C127.428 50.9593 126.835 50.628 126.079 50.628C125.585 50.628 125.151 50.7773 124.777 51.076C124.413 51.3653 124.133 51.79 123.937 52.35C123.741 52.91 123.643 53.5727 123.643 54.338C123.643 55.5047 123.858 56.4193 124.287 57.082C124.726 57.7353 125.323 58.062 126.079 58.062ZM133.32 57.894H137.296V59H131.038V58.622C132.485 57.11 133.535 55.9713 134.188 55.206C134.842 54.4313 135.271 53.8433 135.476 53.442C135.682 53.0407 135.784 52.63 135.784 52.21C135.784 51.9767 135.742 51.762 135.658 51.566C135.584 51.37 135.472 51.202 135.322 51.062C135.182 50.922 135.01 50.8147 134.804 50.74C134.599 50.6653 134.375 50.628 134.132 50.628C133.787 50.628 133.484 50.698 133.222 50.838C132.961 50.9687 132.76 51.1553 132.62 51.398C132.48 51.6407 132.41 51.916 132.41 52.224V52.448H131.262V52.224C131.262 51.692 131.379 51.2207 131.612 50.81C131.855 50.3993 132.191 50.082 132.62 49.858C133.059 49.634 133.563 49.522 134.132 49.522C134.963 49.522 135.64 49.774 136.162 50.278C136.685 50.7727 136.946 51.4167 136.946 52.21C136.946 52.6673 136.862 53.1013 136.694 53.512C136.526 53.9227 136.181 54.4733 135.658 55.164C135.145 55.8453 134.366 56.7553 133.32 57.894ZM142.344 59.168C141.243 59.168 140.365 58.734 139.712 57.866C139.068 56.998 138.746 55.822 138.746 54.338C138.746 52.854 139.068 51.6827 139.712 50.824C140.356 49.956 141.233 49.522 142.344 49.522C143.455 49.522 144.332 49.956 144.976 50.824C145.62 51.6827 145.942 52.854 145.942 54.338C145.942 55.822 145.615 56.998 144.962 57.866C144.318 58.734 143.445 59.168 142.344 59.168ZM142.344 58.062C143.1 58.062 143.693 57.7353 144.122 57.082C144.561 56.4193 144.78 55.5047 144.78 54.338C144.78 53.1807 144.561 52.2753 144.122 51.622C143.693 50.9593 143.1 50.628 142.344 50.628C141.849 50.628 141.415 50.7773 141.042 51.076C140.678 51.3653 140.398 51.79 140.202 52.35C140.006 52.91 139.908 53.5727 139.908 54.338C139.908 55.5047 140.123 56.4193 140.552 57.082C140.991 57.7353 141.588 58.062 142.344 58.062ZM156.471 51.44V52.504H152.929V59H151.767V51.44H156.471ZM161.12 59.168C160.374 59.168 159.692 59 159.076 58.664C158.46 58.3187 157.98 57.8473 157.634 57.25C157.289 56.6433 157.116 55.9667 157.116 55.22C157.116 54.0813 157.494 53.1387 158.25 52.392C159.016 51.6453 159.972 51.272 161.12 51.272C161.876 51.272 162.558 51.4447 163.164 51.79C163.78 52.126 164.261 52.5973 164.606 53.204C164.961 53.8013 165.138 54.4733 165.138 55.22C165.138 56.3493 164.756 57.292 163.99 58.048C163.225 58.7947 162.268 59.168 161.12 59.168ZM159.118 57.236C159.65 57.7587 160.318 58.02 161.12 58.02C161.932 58.02 162.6 57.7587 163.122 57.236C163.654 56.704 163.92 56.032 163.92 55.22C163.92 54.408 163.654 53.7407 163.122 53.218C162.6 52.686 161.932 52.42 161.12 52.42C160.318 52.42 159.65 52.686 159.118 53.218C158.596 53.7407 158.334 54.408 158.334 55.22C158.334 56.032 158.596 56.704 159.118 57.236ZM173.211 57.88H174.233V61.002H173.141V59H167.051V61.002H165.959V57.88H166.771C166.995 57.6747 167.168 57.3853 167.289 57.012C167.41 56.6293 167.518 56.0507 167.611 55.276C167.714 54.492 167.835 53.2133 167.975 51.44H173.211V57.88ZM169.039 52.49C168.955 53.7407 168.866 54.716 168.773 55.416C168.689 56.1067 168.591 56.6387 168.479 57.012C168.367 57.376 168.222 57.6653 168.045 57.88H172.049V52.49H169.039ZM182.392 51.44H183.344V59H182.35L182.224 57.852C181.869 58.272 181.435 58.5987 180.922 58.832C180.418 59.056 179.862 59.168 179.256 59.168C178.145 59.168 177.216 58.7947 176.47 58.048C175.723 57.292 175.35 56.3493 175.35 55.22C175.35 54.0907 175.723 53.1527 176.47 52.406C177.216 51.65 178.145 51.272 179.256 51.272C179.872 51.272 180.432 51.3887 180.936 51.622C181.449 51.8553 181.883 52.182 182.238 52.602L182.392 51.44ZM177.352 57.222C177.884 57.754 178.551 58.02 179.354 58.02C180.156 58.02 180.819 57.754 181.342 57.222C181.864 56.69 182.126 56.0227 182.126 55.22C182.126 54.4173 181.864 53.75 181.342 53.218C180.819 52.686 180.156 52.42 179.354 52.42C178.551 52.42 177.884 52.6907 177.352 53.232C176.829 53.764 176.568 54.4267 176.568 55.22C176.568 56.0133 176.829 56.6807 177.352 57.222ZM185.673 60.862V60.19C186.158 60.022 186.401 59.6253 186.401 59H185.603V57.53H187.045V58.888C187.045 59.9427 186.587 60.6007 185.673 60.862ZM194.664 57.894H198.64V59H192.382V58.622C193.828 57.11 194.878 55.9713 195.532 55.206C196.185 54.4313 196.614 53.8433 196.82 53.442C197.025 53.0407 197.128 52.63 197.128 52.21C197.128 51.9767 197.086 51.762 197.002 51.566C196.927 51.37 196.815 51.202 196.666 51.062C196.526 50.922 196.353 50.8147 196.148 50.74C195.942 50.6653 195.718 50.628 195.476 50.628C195.13 50.628 194.827 50.698 194.566 50.838C194.304 50.9687 194.104 51.1553 193.964 51.398C193.824 51.6407 193.754 51.916 193.754 52.224V52.448H192.606V52.224C192.606 51.692 192.722 51.2207 192.956 50.81C193.198 50.3993 193.534 50.082 193.964 49.858C194.402 49.634 194.906 49.522 195.476 49.522C196.306 49.522 196.983 49.774 197.506 50.278C198.028 50.7727 198.29 51.4167 198.29 52.21C198.29 52.6673 198.206 53.1013 198.038 53.512C197.87 53.9227 197.524 54.4733 197.002 55.164C196.488 55.8453 195.709 56.7553 194.664 57.894ZM203.687 59.168C202.586 59.168 201.709 58.734 201.055 57.866C200.411 56.998 200.089 55.822 200.089 54.338C200.089 52.854 200.411 51.6827 201.055 50.824C201.699 49.956 202.577 49.522 203.687 49.522C204.798 49.522 205.675 49.956 206.319 50.824C206.963 51.6827 207.285 52.854 207.285 54.338C207.285 55.822 206.959 56.998 206.305 57.866C205.661 58.734 204.789 59.168 203.687 59.168ZM203.687 58.062C204.443 58.062 205.036 57.7353 205.465 57.082C205.904 56.4193 206.123 55.5047 206.123 54.338C206.123 53.1807 205.904 52.2753 205.465 51.622C205.036 50.9593 204.443 50.628 203.687 50.628C203.193 50.628 202.759 50.7773 202.385 51.076C202.021 51.3653 201.741 51.79 201.545 52.35C201.349 52.91 201.251 53.5727 201.251 54.338C201.251 55.5047 201.466 56.4193 201.895 57.082C202.334 57.7353 202.931 58.062 203.687 58.062ZM209.122 53.694V52.21H210.48V53.694H209.122ZM209.122 59V57.516H210.48V59H209.122ZM215.918 59.168C214.817 59.168 213.94 58.734 213.286 57.866C212.642 56.998 212.32 55.822 212.32 54.338C212.32 52.854 212.642 51.6827 213.286 50.824C213.93 49.956 214.808 49.522 215.918 49.522C217.029 49.522 217.906 49.956 218.55 50.824C219.194 51.6827 219.516 52.854 219.516 54.338C219.516 55.822 219.19 56.998 218.536 57.866C217.892 58.734 217.02 59.168 215.918 59.168ZM215.918 58.062C216.674 58.062 217.267 57.7353 217.696 57.082C218.135 56.4193 218.354 55.5047 218.354 54.338C218.354 53.1807 218.135 52.2753 217.696 51.622C217.267 50.9593 216.674 50.628 215.918 50.628C215.424 50.628 214.99 50.7773 214.616 51.076C214.252 51.3653 213.972 51.79 213.776 52.35C213.58 52.91 213.482 53.5727 213.482 54.338C213.482 55.5047 213.697 56.4193 214.126 57.082C214.565 57.7353 215.162 58.062 215.918 58.062ZM224.727 59.168C223.626 59.168 222.749 58.734 222.095 57.866C221.451 56.998 221.129 55.822 221.129 54.338C221.129 52.854 221.451 51.6827 222.095 50.824C222.739 49.956 223.617 49.522 224.727 49.522C225.838 49.522 226.715 49.956 227.359 50.824C228.003 51.6827 228.325 52.854 228.325 54.338C228.325 55.822 227.999 56.998 227.345 57.866C226.701 58.734 225.829 59.168 224.727 59.168ZM224.727 58.062C225.483 58.062 226.076 57.7353 226.505 57.082C226.944 56.4193 227.163 55.5047 227.163 54.338C227.163 53.1807 226.944 52.2753 226.505 51.622C226.076 50.9593 225.483 50.628 224.727 50.628C224.233 50.628 223.799 50.7773 223.425 51.076C223.061 51.3653 222.781 51.79 222.585 52.35C222.389 52.91 222.291 53.5727 222.291 54.338C222.291 55.5047 222.506 56.4193 222.935 57.082C223.374 57.7353 223.971 58.062 224.727 58.062Z" fill="#9FA2B4"/>
<path d="M543 33H559" stroke="#FAA61A" stroke-width="2" stroke-linecap="round"/>
<path d="M573.848 37.144C572.608 37.144 571.576 36.736 570.752 35.92C569.936 35.096 569.528 34.056 569.528 32.8C569.528 31.544 569.936 30.508 570.752 29.692C571.576 28.868 572.608 28.456 573.848 28.456C574.504 28.456 575.112 28.584 575.672 28.84C576.232 29.096 576.7 29.46 577.076 29.932C577.46 30.404 577.724 30.952 577.868 31.576H576.476C576.276 31.016 575.944 30.58 575.48 30.268C575.016 29.948 574.472 29.788 573.848 29.788C573.008 29.788 572.312 30.072 571.76 30.64C571.208 31.208 570.932 31.932 570.932 32.812C570.932 33.684 571.208 34.404 571.76 34.972C572.312 35.532 573.008 35.812 573.848 35.812C574.488 35.812 575.044 35.644 575.516 35.308C575.988 34.964 576.316 34.496 576.5 33.904H577.904C577.688 34.888 577.212 35.676 576.476 36.268C575.74 36.852 574.864 37.144 573.848 37.144ZM585.497 33.772C585.497 33.892 585.489 34.04 585.473 34.216H580.217C580.297 34.736 580.513 35.148 580.865 35.452C581.225 35.756 581.669 35.908 582.197 35.908C582.453 35.908 582.693 35.872 582.917 35.8C583.141 35.72 583.337 35.612 583.505 35.476C583.681 35.332 583.825 35.16 583.937 34.96H585.341C585.085 35.648 584.677 36.188 584.117 36.58C583.557 36.964 582.917 37.156 582.197 37.156C581.245 37.156 580.449 36.832 579.809 36.184C579.177 35.536 578.861 34.728 578.861 33.76C578.861 32.792 579.177 31.984 579.809 31.336C580.449 30.688 581.245 30.364 582.197 30.364C582.845 30.364 583.421 30.52 583.925 30.832C584.429 31.136 584.817 31.548 585.089 32.068C585.361 32.58 585.497 33.148 585.497 33.772ZM582.197 31.564C581.701 31.564 581.277 31.704 580.925 31.984C580.581 32.264 580.353 32.648 580.241 33.136H584.165C584.085 32.808 583.953 32.528 583.769 32.296C583.585 32.056 583.357 31.876 583.085 31.756C582.821 31.628 582.525 31.564 582.197 31.564ZM591.151 30.52V31.708H588.319V37H587.011V30.52H591.151ZM597.669 36.196C597.013 36.836 596.189 37.156 595.197 37.156C594.205 37.156 593.377 36.836 592.713 36.196C592.057 35.548 591.729 34.736 591.729 33.76C591.729 33.12 591.877 32.54 592.173 32.02C592.477 31.5 592.893 31.096 593.421 30.808C593.957 30.512 594.549 30.364 595.197 30.364C595.845 30.364 596.433 30.512 596.961 30.808C597.497 31.096 597.913 31.5 598.209 32.02C598.513 32.54 598.665 33.12 598.665 33.76C598.665 34.736 598.333 35.548 597.669 36.196ZM595.197 35.884C595.605 35.884 595.969 35.796 596.289 35.62C596.609 35.436 596.857 35.184 597.033 34.864C597.217 34.536 597.309 34.168 597.309 33.76C597.309 33.144 597.109 32.636 596.709 32.236C596.317 31.836 595.813 31.636 595.197 31.636C594.581 31.636 594.073 31.836 593.673 32.236C593.281 32.636 593.085 33.144 593.085 33.76C593.085 34.376 593.281 34.884 593.673 35.284C594.073 35.684 594.581 35.884 595.197 35.884ZM605.683 35.74H606.523V38.632H605.311V37H600.583V38.632H599.371V35.74H600.055C600.239 35.588 600.379 35.356 600.475 35.044C600.579 34.732 600.671 34.26 600.751 33.628C600.831 32.988 600.935 31.952 601.063 30.52H605.683V35.74ZM602.239 31.696C602.151 33 602.051 33.936 601.939 34.504C601.827 35.072 601.663 35.484 601.447 35.74H604.375V31.696H602.239ZM612.373 30.52H613.681V37H612.373V34.288H609.373V37H608.053V30.52H609.373V33.064H612.373V30.52ZM617.489 30.52H620.585V37H619.289V34.624H617.933L616.517 37H615.065L616.613 34.408C616.221 34.248 615.913 34.008 615.689 33.688C615.465 33.368 615.353 32.996 615.353 32.572C615.353 31.988 615.557 31.5 615.965 31.108C616.373 30.716 616.881 30.52 617.489 30.52ZM617.669 33.46H619.289V31.696H617.669C617.477 31.696 617.305 31.736 617.153 31.816C617.009 31.888 616.897 31.992 616.817 32.128C616.737 32.256 616.697 32.408 616.697 32.584C616.697 32.84 616.785 33.052 616.961 33.22C617.137 33.38 617.373 33.46 617.669 33.46Z" fill="#9FA2B4"/>
<path opacity="0.3" d="M652 33H668" stroke="#FAA61A" stroke-width="2" stroke-linecap="round"/>
<path d="M683.916 32.62C684.284 32.804 684.572 33.076 684.78 33.436C684.996 33.788 685.104 34.192 685.104 34.648C685.104 35.304 684.852 35.86 684.348 36.316C683.852 36.772 683.244 37 682.524 37H679.068V28.6H682.452C683.156 28.6 683.736 28.808 684.192 29.224C684.656 29.632 684.888 30.144 684.888 30.76C684.888 31.128 684.8 31.484 684.624 31.828C684.448 32.164 684.212 32.428 683.916 32.62ZM683.52 30.964C683.52 30.644 683.408 30.384 683.184 30.184C682.968 29.976 682.696 29.872 682.368 29.872H680.424V32.056H682.368C682.704 32.056 682.98 31.952 683.196 31.744C683.412 31.536 683.52 31.276 683.52 30.964ZM682.44 35.68C682.808 35.68 683.108 35.568 683.34 35.344C683.58 35.12 683.7 34.836 683.7 34.492C683.7 34.148 683.58 33.864 683.34 33.64C683.108 33.416 682.808 33.304 682.44 33.304H680.424V35.68H682.44ZM690.299 30.52H691.595V37H690.299V34.684C689.859 34.844 689.395 34.924 688.907 34.924C688.115 34.924 687.479 34.692 686.999 34.228C686.519 33.764 686.279 33.124 686.279 32.308V30.52H687.587V32.26C687.587 32.724 687.707 33.08 687.947 33.328C688.195 33.576 688.551 33.7 689.015 33.7C689.479 33.7 689.907 33.596 690.299 33.388V30.52ZM699.741 33.772C699.741 33.892 699.734 34.04 699.718 34.216H694.461C694.541 34.736 694.757 35.148 695.109 35.452C695.47 35.756 695.913 35.908 696.441 35.908C696.697 35.908 696.937 35.872 697.161 35.8C697.386 35.72 697.582 35.612 697.75 35.476C697.926 35.332 698.069 35.16 698.181 34.96H699.586C699.33 35.648 698.922 36.188 698.362 36.58C697.801 36.964 697.161 37.156 696.441 37.156C695.489 37.156 694.693 36.832 694.053 36.184C693.421 35.536 693.105 34.728 693.105 33.76C693.105 32.792 693.421 31.984 694.053 31.336C694.693 30.688 695.489 30.364 696.441 30.364C697.09 30.364 697.666 30.52 698.17 30.832C698.674 31.136 699.062 31.548 699.334 32.068C699.605 32.58 699.741 33.148 699.741 33.772ZM696.441 31.564C695.946 31.564 695.522 31.704 695.169 31.984C694.825 32.264 694.597 32.648 694.485 33.136H698.41C698.33 32.808 698.197 32.528 698.013 32.296C697.829 32.056 697.602 31.876 697.33 31.756C697.066 31.628 696.769 31.564 696.441 31.564ZM704.736 30.364C705.376 30.364 705.952 30.512 706.464 30.808C706.976 31.096 707.376 31.5 707.664 32.02C707.952 32.54 708.096 33.12 708.096 33.76C708.096 34.736 707.776 35.548 707.136 36.196C706.504 36.836 705.704 37.156 704.736 37.156C703.904 37.156 703.188 36.896 702.588 36.376V39.328H701.256V30.52H702.156L702.408 31.312C703.032 30.68 703.808 30.364 704.736 30.364ZM703.116 35.284C703.516 35.684 704.02 35.884 704.628 35.884C705.244 35.884 705.752 35.684 706.152 35.284C706.552 34.876 706.752 34.368 706.752 33.76C706.752 33.152 706.552 32.648 706.152 32.248C705.752 31.84 705.248 31.636 704.64 31.636C704.24 31.636 703.876 31.728 703.548 31.912C703.22 32.096 702.964 32.352 702.78 32.68C702.604 33 702.516 33.36 702.516 33.76C702.516 34.368 702.716 34.876 703.116 35.284ZM715.053 30.52H716.085V37H715.005L714.873 36.208C714.249 36.84 713.469 37.156 712.533 37.156C711.565 37.156 710.757 36.832 710.109 36.184C709.469 35.536 709.149 34.728 709.149 33.76C709.149 32.784 709.469 31.976 710.109 31.336C710.757 30.688 711.565 30.364 712.533 30.364C713.485 30.364 714.273 30.684 714.897 31.324L715.053 30.52ZM711.105 35.284C711.513 35.684 712.021 35.884 712.629 35.884C713.245 35.884 713.749 35.684 714.141 35.284C714.541 34.876 714.741 34.368 714.741 33.76C714.741 33.144 714.541 32.636 714.141 32.236C713.749 31.836 713.245 31.636 712.629 31.636C712.229 31.636 711.865 31.728 711.537 31.912C711.217 32.096 710.965 32.352 710.781 32.68C710.597 33 710.505 33.36 710.505 33.76C710.505 34.368 710.705 34.876 711.105 35.284Z" fill="#9FA2B4"/>
<g clip-path="url(#clip0)">
<path d="M32 426H718" stroke="#EBEDF0"/>
<path d="M32 370H718" stroke="#EBEDF0"/>
<path d="M32 314H718" stroke="#EBEDF0"/>
<path d="M32 258H718" stroke="#EBEDF0"/>
<path d="M32 202H718" stroke="#EBEDF0"/>
<path d="M32 146H718" stroke="#EBEDF0"/>
<path d="M32 90H718" stroke="#EBEDF0"/>
<path d="M446 205L447 425.998" stroke="#EBEDF0"/>
<g clip-path="url(#clip1)">
<path d="M35.0052 445.12C34.1986 445.12 33.5586 444.81 33.0852 444.19C32.6119 443.57 32.3752 442.73 32.3752 441.67C32.3752 440.61 32.6086 439.773 33.0752 439.16C33.5486 438.54 34.1919 438.23 35.0052 438.23C35.8119 438.23 36.4486 438.54 36.9152 439.16C37.3886 439.773 37.6252 440.61 37.6252 441.67C37.6252 442.73 37.3886 443.57 36.9152 444.19C36.4419 444.81 35.8052 445.12 35.0052 445.12ZM35.0052 444.1C35.4852 444.1 35.8586 443.887 36.1252 443.46C36.3986 443.033 36.5352 442.437 36.5352 441.67C36.5352 441.163 36.4719 440.73 36.3452 440.37C36.2252 440.003 36.0486 439.727 35.8152 439.54C35.5886 439.347 35.3186 439.25 35.0052 439.25C34.6852 439.25 34.4086 439.347 34.1752 439.54C33.9419 439.727 33.7652 440.003 33.6452 440.37C33.5252 440.73 33.4652 441.163 33.4652 441.67C33.4652 442.437 33.5986 443.033 33.8652 443.46C34.1386 443.887 34.5186 444.1 35.0052 444.1Z" fill="#9FA2B4"/>
<path d="M59.5761 438.35H61.8161V445H60.7461V439.32H59.5761V438.35Z" fill="#9FA2B4"/>
<path d="M86.7442 443.98H89.2242V445H84.6742V444.71C85.6676 443.623 86.3842 442.813 86.8242 442.28C87.2709 441.74 87.5676 441.33 87.7142 441.05C87.8609 440.77 87.9342 440.493 87.9342 440.22C87.9342 440.027 87.8909 439.857 87.8042 439.71C87.7242 439.563 87.6076 439.45 87.4542 439.37C87.3076 439.283 87.1342 439.24 86.9342 439.24C86.6209 439.24 86.3676 439.333 86.1742 439.52C85.9876 439.7 85.8942 439.937 85.8942 440.23V440.38H84.8142V440.23C84.8142 439.63 85.0076 439.147 85.3942 438.78C85.7809 438.407 86.2909 438.22 86.9242 438.22C87.5442 438.22 88.0476 438.407 88.4342 438.78C88.8276 439.153 89.0242 439.633 89.0242 440.22C89.0242 440.527 88.9676 440.823 88.8542 441.11C88.7476 441.397 88.5276 441.767 88.1942 442.22C87.8676 442.667 87.3842 443.253 86.7442 443.98Z" fill="#9FA2B4"/>
<path d="M113.51 440.84C114.03 440.933 114.447 441.17 114.76 441.55C115.08 441.93 115.24 442.383 115.24 442.91C115.24 443.55 115.02 444.08 114.58 444.5C114.147 444.913 113.603 445.12 112.95 445.12C112.317 445.12 111.79 444.923 111.37 444.53C110.957 444.13 110.737 443.617 110.71 442.99H111.79C111.81 443.323 111.927 443.593 112.14 443.8C112.353 444 112.623 444.1 112.95 444.1C113.297 444.1 113.583 443.987 113.81 443.76C114.037 443.527 114.15 443.233 114.15 442.88C114.15 442.707 114.117 442.547 114.05 442.4C113.983 442.247 113.893 442.117 113.78 442.01C113.667 441.903 113.53 441.823 113.37 441.77C113.21 441.71 113.037 441.68 112.85 441.68H112.01V441.47L113.39 439.33H110.91V438.35H114.98V438.57L113.51 440.84Z" fill="#9FA2B4"/>
<path d="M141.446 442.7V443.65H140.806V445H139.766V443.65H136.456V443.43L138.726 438.35H139.826L137.886 442.7H139.786L139.966 440.85H140.806V442.7H141.446Z" fill="#9FA2B4"/>
<path d="M164.934 440.74C165.614 440.74 166.171 440.947 166.604 441.36C167.044 441.773 167.264 442.29 167.264 442.91C167.264 443.543 167.047 444.07 166.614 444.49C166.181 444.91 165.641 445.12 164.994 445.12C164.354 445.12 163.821 444.92 163.394 444.52C162.974 444.12 162.754 443.61 162.734 442.99H163.814C163.827 443.317 163.944 443.583 164.164 443.79C164.384 443.997 164.661 444.1 164.994 444.1C165.334 444.1 165.614 443.987 165.834 443.76C166.061 443.533 166.174 443.25 166.174 442.91C166.174 442.797 166.157 442.687 166.124 442.58C166.097 442.473 166.057 442.377 166.004 442.29C165.951 442.197 165.884 442.113 165.804 442.04C165.731 441.967 165.647 441.903 165.554 441.85C165.461 441.797 165.357 441.757 165.244 441.73C165.137 441.703 165.021 441.69 164.894 441.69H163.134L163.004 441.54L163.364 438.35H166.804V439.33H164.234L164.084 440.74H164.934Z" fill="#9FA2B4"/>
<path d="M191.282 440.63C191.902 440.63 192.429 440.833 192.862 441.24C193.302 441.64 193.522 442.16 193.522 442.8C193.522 443.247 193.419 443.647 193.212 444C193.006 444.353 192.716 444.63 192.342 444.83C191.976 445.023 191.559 445.12 191.092 445.12C190.372 445.12 189.782 444.903 189.322 444.47C188.869 444.037 188.642 443.48 188.642 442.8C188.642 442.187 188.882 441.463 189.362 440.63L190.692 438.31H191.872C191.106 439.67 190.646 440.493 190.492 440.78C190.752 440.68 191.016 440.63 191.282 440.63ZM191.082 444.1C191.476 444.1 191.799 443.98 192.052 443.74C192.306 443.493 192.432 443.18 192.432 442.8C192.432 442.413 192.306 442.1 192.052 441.86C191.799 441.613 191.476 441.49 191.082 441.49C190.829 441.49 190.599 441.547 190.392 441.66C190.186 441.773 190.022 441.93 189.902 442.13C189.789 442.323 189.732 442.547 189.732 442.8C189.732 443.18 189.859 443.493 190.112 443.74C190.372 443.98 190.696 444.1 191.082 444.1Z" fill="#9FA2B4"/>
<path d="M214.726 438.35H219.336V438.51L216.756 445H215.616L217.886 439.33H214.726V438.35Z" fill="#9FA2B4"/>
<path d="M244.535 441.45C244.808 441.617 245.021 441.84 245.175 442.12C245.335 442.393 245.415 442.7 245.415 443.04C245.415 443.647 245.188 444.147 244.735 444.54C244.281 444.927 243.701 445.12 242.995 445.12C242.521 445.12 242.101 445.033 241.735 444.86C241.368 444.687 241.085 444.443 240.885 444.13C240.685 443.81 240.585 443.447 240.585 443.04C240.585 442.707 240.661 442.403 240.815 442.13C240.975 441.85 241.195 441.623 241.475 441.45C241.368 441.37 241.271 441.28 241.185 441.18C241.105 441.073 241.035 440.963 240.975 440.85C240.921 440.73 240.878 440.603 240.845 440.47C240.818 440.337 240.805 440.2 240.805 440.06C240.805 439.52 241.008 439.08 241.415 438.74C241.821 438.393 242.348 438.22 242.995 438.22C243.648 438.22 244.175 438.39 244.575 438.73C244.981 439.07 245.185 439.513 245.185 440.06C245.185 440.34 245.125 440.603 245.005 440.85C244.891 441.097 244.735 441.297 244.535 441.45ZM242.995 439.13C242.661 439.13 242.388 439.22 242.175 439.4C241.968 439.573 241.865 439.797 241.865 440.07C241.865 440.35 241.968 440.58 242.175 440.76C242.388 440.94 242.661 441.03 242.995 441.03C243.328 441.03 243.598 440.94 243.805 440.76C244.018 440.58 244.125 440.35 244.125 440.07C244.125 439.89 244.078 439.73 243.985 439.59C243.891 439.443 243.758 439.33 243.585 439.25C243.411 439.17 243.215 439.13 242.995 439.13ZM242.995 444.18C243.395 444.18 243.715 444.077 243.955 443.87C244.201 443.657 244.325 443.383 244.325 443.05C244.325 442.717 244.201 442.443 243.955 442.23C243.715 442.017 243.395 441.91 242.995 441.91C242.601 441.91 242.281 442.017 242.035 442.23C241.795 442.443 241.675 442.717 241.675 443.05C241.675 443.383 241.795 443.657 242.035 443.87C242.281 444.077 242.601 444.18 242.995 444.18Z" fill="#9FA2B4"/>
<path d="M268.912 438.22C269.625 438.22 270.209 438.437 270.662 438.87C271.122 439.303 271.352 439.86 271.352 440.54C271.352 441.193 271.119 441.917 270.652 442.71L269.322 445H268.132C268.872 443.72 269.332 442.91 269.512 442.57C269.259 442.67 268.995 442.72 268.722 442.72C268.089 442.72 267.559 442.513 267.132 442.1C266.705 441.68 266.492 441.16 266.492 440.54C266.492 439.867 266.719 439.313 267.172 438.88C267.625 438.44 268.205 438.22 268.912 438.22ZM268.922 441.85C269.315 441.85 269.639 441.727 269.892 441.48C270.152 441.233 270.282 440.92 270.282 440.54C270.282 440.353 270.249 440.18 270.182 440.02C270.115 439.86 270.022 439.723 269.902 439.61C269.782 439.49 269.635 439.4 269.462 439.34C269.295 439.273 269.115 439.24 268.922 439.24C268.529 439.24 268.202 439.363 267.942 439.61C267.689 439.85 267.562 440.163 267.562 440.55C267.562 440.93 267.689 441.243 267.942 441.49C268.202 441.73 268.529 441.85 268.922 441.85Z" fill="#9FA2B4"/>
<path d="M294.391 438.35H296.631V445H295.561V439.32H294.391V438.35ZM300.769 445.12C299.962 445.12 299.322 444.81 298.849 444.19C298.376 443.57 298.139 442.73 298.139 441.67C298.139 440.61 298.372 439.773 298.839 439.16C299.312 438.54 299.956 438.23 300.769 438.23C301.576 438.23 302.212 438.54 302.679 439.16C303.152 439.773 303.389 440.61 303.389 441.67C303.389 442.73 303.152 443.57 302.679 444.19C302.206 444.81 301.569 445.12 300.769 445.12ZM300.769 444.1C301.249 444.1 301.622 443.887 301.889 443.46C302.162 443.033 302.299 442.437 302.299 441.67C302.299 441.163 302.236 440.73 302.109 440.37C301.989 440.003 301.812 439.727 301.579 439.54C301.352 439.347 301.082 439.25 300.769 439.25C300.449 439.25 300.172 439.347 299.939 439.54C299.706 439.727 299.529 440.003 299.409 440.37C299.289 440.73 299.229 441.163 299.229 441.67C299.229 442.437 299.362 443.033 299.629 443.46C299.902 443.887 300.282 444.1 300.769 444.1Z" fill="#9FA2B4"/>
<path d="M329.812 438.35H332.052V445H330.982V439.32H329.812V438.35ZM333.34 438.35H335.58V445H334.51V439.32H333.34V438.35Z" fill="#9FA2B4"/>
<path d="M362.85 438.35H365.09V445H364.02V439.32H362.85V438.35ZM368.508 443.98H370.988V445H366.438V444.71C367.431 443.623 368.148 442.813 368.588 442.28C369.035 441.74 369.331 441.33 369.478 441.05C369.625 440.77 369.698 440.493 369.698 440.22C369.698 440.027 369.655 439.857 369.568 439.71C369.488 439.563 369.371 439.45 369.218 439.37C369.071 439.283 368.898 439.24 368.698 439.24C368.385 439.24 368.131 439.333 367.938 439.52C367.751 439.7 367.658 439.937 367.658 440.23V440.38H366.578V440.23C366.578 439.63 366.771 439.147 367.158 438.78C367.545 438.407 368.055 438.22 368.688 438.22C369.308 438.22 369.811 438.407 370.198 438.78C370.591 439.153 370.788 439.633 370.788 440.22C370.788 440.527 370.731 440.823 370.618 441.11C370.511 441.397 370.291 441.767 369.958 442.22C369.631 442.667 369.148 443.253 368.508 443.98Z" fill="#9FA2B4"/>
<path d="M396.816 438.35H399.056V445H397.986V439.32H396.816V438.35ZM403.274 440.84C403.794 440.933 404.211 441.17 404.524 441.55C404.844 441.93 405.004 442.383 405.004 442.91C405.004 443.55 404.784 444.08 404.344 444.5C403.911 444.913 403.367 445.12 402.714 445.12C402.081 445.12 401.554 444.923 401.134 444.53C400.721 444.13 400.501 443.617 400.474 442.99H401.554C401.574 443.323 401.691 443.593 401.904 443.8C402.117 444 402.387 444.1 402.714 444.1C403.061 444.1 403.347 443.987 403.574 443.76C403.801 443.527 403.914 443.233 403.914 442.88C403.914 442.707 403.881 442.547 403.814 442.4C403.747 442.247 403.657 442.117 403.544 442.01C403.431 441.903 403.294 441.823 403.134 441.77C402.974 441.71 402.801 441.68 402.614 441.68H401.774V441.47L403.154 439.33H400.674V438.35H404.744V438.57L403.274 440.84Z" fill="#9FA2B4"/>
<path d="M430.792 438.35H433.032V445H431.962V439.32H430.792V438.35ZM439.209 442.7V443.65H438.569V445H437.529V443.65H434.219V443.43L436.489 438.35H437.589L435.649 442.7H437.549L437.729 440.85H438.569V442.7H439.209Z" fill="#9FA2B4"/>
<path d="M464.86 438.35H467.1V445H466.03V439.32H464.86V438.35ZM470.698 440.74C471.378 440.74 471.935 440.947 472.368 441.36C472.808 441.773 473.028 442.29 473.028 442.91C473.028 443.543 472.811 444.07 472.378 444.49C471.945 444.91 471.405 445.12 470.758 445.12C470.118 445.12 469.585 444.92 469.158 444.52C468.738 444.12 468.518 443.61 468.498 442.99H469.578C469.591 443.317 469.708 443.583 469.928 443.79C470.148 443.997 470.425 444.1 470.758 444.1C471.098 444.1 471.378 443.987 471.598 443.76C471.825 443.533 471.938 443.25 471.938 442.91C471.938 442.797 471.921 442.687 471.888 442.58C471.861 442.473 471.821 442.377 471.768 442.29C471.715 442.197 471.648 442.113 471.568 442.04C471.495 441.967 471.411 441.903 471.318 441.85C471.225 441.797 471.121 441.757 471.008 441.73C470.901 441.703 470.785 441.69 470.658 441.69H468.898L468.768 441.54L469.128 438.35H472.568V439.33H469.998L469.848 440.74H470.698Z" fill="#9FA2B4"/>
<path d="M498.719 438.35H500.959V445H499.889V439.32H498.719V438.35ZM505.046 440.63C505.666 440.63 506.193 440.833 506.626 441.24C507.066 441.64 507.286 442.16 507.286 442.8C507.286 443.247 507.183 443.647 506.976 444C506.77 444.353 506.48 444.63 506.106 444.83C505.74 445.023 505.323 445.12 504.856 445.12C504.136 445.12 503.546 444.903 503.086 444.47C502.633 444.037 502.406 443.48 502.406 442.8C502.406 442.187 502.646 441.463 503.126 440.63L504.456 438.31H505.636C504.87 439.67 504.41 440.493 504.256 440.78C504.516 440.68 504.78 440.63 505.046 440.63ZM504.846 444.1C505.24 444.1 505.563 443.98 505.816 443.74C506.07 443.493 506.196 443.18 506.196 442.8C506.196 442.413 506.07 442.1 505.816 441.86C505.563 441.613 505.24 441.49 504.846 441.49C504.593 441.49 504.363 441.547 504.156 441.66C503.95 441.773 503.786 441.93 503.666 442.13C503.553 442.323 503.496 442.547 503.496 442.8C503.496 443.18 503.623 443.493 503.876 443.74C504.136 443.98 504.46 444.1 504.846 444.1Z" fill="#9FA2B4"/>
<path d="M532.982 438.35H535.222V445H534.152V439.32H532.982V438.35ZM536.49 438.35H541.1V438.51L538.52 445H537.38L539.65 439.33H536.49V438.35Z" fill="#9FA2B4"/>
<path d="M566.621 438.35H568.861V445H567.791V439.32H566.621V438.35ZM574.299 441.45C574.572 441.617 574.785 441.84 574.939 442.12C575.099 442.393 575.179 442.7 575.179 443.04C575.179 443.647 574.952 444.147 574.499 444.54C574.045 444.927 573.465 445.12 572.759 445.12C572.285 445.12 571.865 445.033 571.499 444.86C571.132 444.687 570.849 444.443 570.649 444.13C570.449 443.81 570.349 443.447 570.349 443.04C570.349 442.707 570.425 442.403 570.579 442.13C570.739 441.85 570.959 441.623 571.239 441.45C571.132 441.37 571.035 441.28 570.949 441.18C570.869 441.073 570.799 440.963 570.739 440.85C570.685 440.73 570.642 440.603 570.609 440.47C570.582 440.337 570.569 440.2 570.569 440.06C570.569 439.52 570.772 439.08 571.179 438.74C571.585 438.393 572.112 438.22 572.759 438.22C573.412 438.22 573.939 438.39 574.339 438.73C574.745 439.07 574.949 439.513 574.949 440.06C574.949 440.34 574.889 440.603 574.769 440.85C574.655 441.097 574.499 441.297 574.299 441.45ZM572.759 439.13C572.425 439.13 572.152 439.22 571.939 439.4C571.732 439.573 571.629 439.797 571.629 440.07C571.629 440.35 571.732 440.58 571.939 440.76C572.152 440.94 572.425 441.03 572.759 441.03C573.092 441.03 573.362 440.94 573.569 440.76C573.782 440.58 573.889 440.35 573.889 440.07C573.889 439.89 573.842 439.73 573.749 439.59C573.655 439.443 573.522 439.33 573.349 439.25C573.175 439.17 572.979 439.13 572.759 439.13ZM572.759 444.18C573.159 444.18 573.479 444.077 573.719 443.87C573.965 443.657 574.089 443.383 574.089 443.05C574.089 442.717 573.965 442.443 573.719 442.23C573.479 442.017 573.159 441.91 572.759 441.91C572.365 441.91 572.045 442.017 571.799 442.23C571.559 442.443 571.439 442.717 571.439 443.05C571.439 443.383 571.559 443.657 571.799 443.87C572.045 444.077 572.365 444.18 572.759 444.18Z" fill="#9FA2B4"/>
<path d="M600.728 438.35H602.968V445H601.898V439.32H600.728V438.35ZM606.676 438.22C607.389 438.22 607.973 438.437 608.426 438.87C608.886 439.303 609.116 439.86 609.116 440.54C609.116 441.193 608.883 441.917 608.416 442.71L607.086 445H605.896C606.636 443.72 607.096 442.91 607.276 442.57C607.023 442.67 606.759 442.72 606.486 442.72C605.853 442.72 605.323 442.513 604.896 442.1C604.469 441.68 604.256 441.16 604.256 440.54C604.256 439.867 604.483 439.313 604.936 438.88C605.389 438.44 605.969 438.22 606.676 438.22ZM606.686 441.85C607.079 441.85 607.403 441.727 607.656 441.48C607.916 441.233 608.046 440.92 608.046 440.54C608.046 440.353 608.013 440.18 607.946 440.02C607.879 439.86 607.786 439.723 607.666 439.61C607.546 439.49 607.399 439.4 607.226 439.34C607.059 439.273 606.879 439.24 606.686 439.24C606.293 439.24 605.966 439.363 605.706 439.61C605.453 439.85 605.326 440.163 605.326 440.55C605.326 440.93 605.453 441.243 605.706 441.49C605.966 441.73 606.293 441.85 606.686 441.85Z" fill="#9FA2B4"/>
<path d="M635.559 443.98H638.039V445H633.489V444.71C634.483 443.623 635.199 442.813 635.639 442.28C636.086 441.74 636.383 441.33 636.529 441.05C636.676 440.77 636.749 440.493 636.749 440.22C636.749 440.027 636.706 439.857 636.619 439.71C636.539 439.563 636.423 439.45 636.269 439.37C636.123 439.283 635.949 439.24 635.749 439.24C635.436 439.24 635.183 439.333 634.989 439.52C634.803 439.7 634.709 439.937 634.709 440.23V440.38H633.629V440.23C633.629 439.63 633.823 439.147 634.209 438.78C634.596 438.407 635.106 438.22 635.739 438.22C636.359 438.22 636.863 438.407 637.249 438.78C637.643 439.153 637.839 439.633 637.839 440.22C637.839 440.527 637.783 440.823 637.669 441.11C637.563 441.397 637.343 441.767 637.009 442.22C636.683 442.667 636.199 443.253 635.559 443.98ZM641.731 445.12C640.924 445.12 640.284 444.81 639.811 444.19C639.338 443.57 639.101 442.73 639.101 441.67C639.101 440.61 639.334 439.773 639.801 439.16C640.274 438.54 640.918 438.23 641.731 438.23C642.538 438.23 643.174 438.54 643.641 439.16C644.114 439.773 644.351 440.61 644.351 441.67C644.351 442.73 644.114 443.57 643.641 444.19C643.168 444.81 642.531 445.12 641.731 445.12ZM641.731 444.1C642.211 444.1 642.584 443.887 642.851 443.46C643.124 443.033 643.261 442.437 643.261 441.67C643.261 441.163 643.198 440.73 643.071 440.37C642.951 440.003 642.774 439.727 642.541 439.54C642.314 439.347 642.044 439.25 641.731 439.25C641.411 439.25 641.134 439.347 640.901 439.54C640.668 439.727 640.491 440.003 640.371 440.37C640.251 440.73 640.191 441.163 640.191 441.67C640.191 442.437 640.324 443.033 640.591 443.46C640.864 443.887 641.244 444.1 641.731 444.1Z" fill="#9FA2B4"/>
<path d="M670.98 443.98H673.46V445H668.91V444.71C669.904 443.623 670.62 442.813 671.06 442.28C671.507 441.74 671.804 441.33 671.95 441.05C672.097 440.77 672.17 440.493 672.17 440.22C672.17 440.027 672.127 439.857 672.04 439.71C671.96 439.563 671.844 439.45 671.69 439.37C671.544 439.283 671.37 439.24 671.17 439.24C670.857 439.24 670.604 439.333 670.41 439.52C670.224 439.7 670.13 439.937 670.13 440.23V440.38H669.05V440.23C669.05 439.63 669.244 439.147 669.63 438.78C670.017 438.407 670.527 438.22 671.16 438.22C671.78 438.22 672.284 438.407 672.67 438.78C673.064 439.153 673.26 439.633 673.26 440.22C673.26 440.527 673.204 440.823 673.09 441.11C672.984 441.397 672.764 441.767 672.43 442.22C672.104 442.667 671.62 443.253 670.98 443.98ZM674.302 438.35H676.542V445H675.472V439.32H674.302V438.35Z" fill="#9FA2B4"/>
<path d="M704.018 443.98H706.498V445H701.948V444.71C702.942 443.623 703.658 442.813 704.098 442.28C704.545 441.74 704.842 441.33 704.988 441.05C705.135 440.77 705.208 440.493 705.208 440.22C705.208 440.027 705.165 439.857 705.078 439.71C704.998 439.563 704.882 439.45 704.728 439.37C704.582 439.283 704.408 439.24 704.208 439.24C703.895 439.24 703.642 439.333 703.448 439.52C703.262 439.7 703.168 439.937 703.168 440.23V440.38H702.088V440.23C702.088 439.63 702.282 439.147 702.668 438.78C703.055 438.407 703.565 438.22 704.198 438.22C704.818 438.22 705.322 438.407 705.708 438.78C706.102 439.153 706.298 439.633 706.298 440.22C706.298 440.527 706.242 440.823 706.128 441.11C706.022 441.397 705.802 441.767 705.468 442.22C705.142 442.667 704.658 443.253 704.018 443.98ZM709.47 443.98H711.95V445H707.4V444.71C708.393 443.623 709.11 442.813 709.55 442.28C709.997 441.74 710.293 441.33 710.44 441.05C710.587 440.77 710.66 440.493 710.66 440.22C710.66 440.027 710.617 439.857 710.53 439.71C710.45 439.563 710.333 439.45 710.18 439.37C710.033 439.283 709.86 439.24 709.66 439.24C709.347 439.24 709.093 439.333 708.9 439.52C708.713 439.7 708.62 439.937 708.62 440.23V440.38H707.54V440.23C707.54 439.63 707.733 439.147 708.12 438.78C708.507 438.407 709.017 438.22 709.65 438.22C710.27 438.22 710.773 438.407 711.16 438.78C711.553 439.153 711.75 439.633 711.75 440.22C711.75 440.527 711.693 440.823 711.58 441.11C711.473 441.397 711.253 441.767 710.92 442.22C710.593 442.667 710.11 443.253 709.47 443.98Z" fill="#9FA2B4"/>
</g>
<path d="M714.87 416.12C714.064 416.12 713.424 415.81 712.95 415.19C712.477 414.57 712.24 413.73 712.24 412.67C712.24 411.61 712.474 410.773 712.94 410.16C713.414 409.54 714.057 409.23 714.87 409.23C715.677 409.23 716.314 409.54 716.78 410.16C717.254 410.773 717.49 411.61 717.49 412.67C717.49 413.73 717.254 414.57 716.78 415.19C716.307 415.81 715.67 416.12 714.87 416.12ZM714.87 415.1C715.35 415.1 715.724 414.887 715.99 414.46C716.264 414.033 716.4 413.437 716.4 412.67C716.4 412.163 716.337 411.73 716.21 411.37C716.09 411.003 715.914 410.727 715.68 410.54C715.454 410.347 715.184 410.25 714.87 410.25C714.55 410.25 714.274 410.347 714.04 410.54C713.807 410.727 713.63 411.003 713.51 411.37C713.39 411.73 713.33 412.163 713.33 412.67C713.33 413.437 713.464 414.033 713.73 414.46C714.004 414.887 714.384 415.1 714.87 415.1Z" fill="#9FA2B4"/>
<path d="M708.493 353.35H710.733V360H709.663V354.32H708.493V353.35ZM714.87 360.12C714.064 360.12 713.424 359.81 712.95 359.19C712.477 358.57 712.24 357.73 712.24 356.67C712.24 355.61 712.474 354.773 712.94 354.16C713.414 353.54 714.057 353.23 714.87 353.23C715.677 353.23 716.314 353.54 716.78 354.16C717.254 354.773 717.49 355.61 717.49 356.67C717.49 357.73 717.254 358.57 716.78 359.19C716.307 359.81 715.67 360.12 714.87 360.12ZM714.87 359.1C715.35 359.1 715.724 358.887 715.99 358.46C716.264 358.033 716.4 357.437 716.4 356.67C716.4 356.163 716.337 355.73 716.21 355.37C716.09 355.003 715.914 354.727 715.68 354.54C715.454 354.347 715.184 354.25 714.87 354.25C714.55 354.25 714.274 354.347 714.04 354.54C713.807 354.727 713.63 355.003 713.51 355.37C713.39 355.73 713.33 356.163 713.33 356.67C713.33 357.437 713.464 358.033 713.73 358.46C714.004 358.887 714.384 359.1 714.87 359.1Z" fill="#9FA2B4"/>
<path d="M708.699 302.98H711.179V304H706.629V303.71C707.622 302.623 708.339 301.813 708.779 301.28C709.226 300.74 709.522 300.33 709.669 300.05C709.816 299.77 709.889 299.493 709.889 299.22C709.889 299.027 709.846 298.857 709.759 298.71C709.679 298.563 709.562 298.45 709.409 298.37C709.262 298.283 709.089 298.24 708.889 298.24C708.576 298.24 708.322 298.333 708.129 298.52C707.942 298.7 707.849 298.937 707.849 299.23V299.38H706.769V299.23C706.769 298.63 706.962 298.147 707.349 297.78C707.736 297.407 708.246 297.22 708.879 297.22C709.499 297.22 710.002 297.407 710.389 297.78C710.782 298.153 710.979 298.633 710.979 299.22C710.979 299.527 710.922 299.823 710.809 300.11C710.702 300.397 710.482 300.767 710.149 301.22C709.822 301.667 709.339 302.253 708.699 302.98ZM714.87 304.12C714.064 304.12 713.424 303.81 712.95 303.19C712.477 302.57 712.24 301.73 712.24 300.67C712.24 299.61 712.474 298.773 712.94 298.16C713.414 297.54 714.057 297.23 714.87 297.23C715.677 297.23 716.314 297.54 716.78 298.16C717.254 298.773 717.49 299.61 717.49 300.67C717.49 301.73 717.254 302.57 716.78 303.19C716.307 303.81 715.67 304.12 714.87 304.12ZM714.87 303.1C715.35 303.1 715.724 302.887 715.99 302.46C716.264 302.033 716.4 301.437 716.4 300.67C716.4 300.163 716.337 299.73 716.21 299.37C716.09 299.003 715.914 298.727 715.68 298.54C715.454 298.347 715.184 298.25 714.87 298.25C714.55 298.25 714.274 298.347 714.04 298.54C713.807 298.727 713.63 299.003 713.51 299.37C713.39 299.73 713.33 300.163 713.33 300.67C713.33 301.437 713.464 302.033 713.73 302.46C714.004 302.887 714.384 303.1 714.87 303.1Z" fill="#9FA2B4"/>
<path d="M709.431 243.84C709.951 243.933 710.367 244.17 710.681 244.55C711.001 244.93 711.161 245.383 711.161 245.91C711.161 246.55 710.941 247.08 710.501 247.5C710.067 247.913 709.524 248.12 708.871 248.12C708.237 248.12 707.711 247.923 707.291 247.53C706.877 247.13 706.657 246.617 706.631 245.99H707.711C707.731 246.323 707.847 246.593 708.061 246.8C708.274 247 708.544 247.1 708.871 247.1C709.217 247.1 709.504 246.987 709.731 246.76C709.957 246.527 710.071 246.233 710.071 245.88C710.071 245.707 710.037 245.547 709.971 245.4C709.904 245.247 709.814 245.117 709.701 245.01C709.587 244.903 709.451 244.823 709.291 244.77C709.131 244.71 708.957 244.68 708.771 244.68H707.931V244.47L709.311 242.33H706.831V241.35H710.901V241.57L709.431 243.84ZM714.87 248.12C714.064 248.12 713.424 247.81 712.95 247.19C712.477 246.57 712.24 245.73 712.24 244.67C712.24 243.61 712.474 242.773 712.94 242.16C713.414 241.54 714.057 241.23 714.87 241.23C715.677 241.23 716.314 241.54 716.78 242.16C717.254 242.773 717.49 243.61 717.49 244.67C717.49 245.73 717.254 246.57 716.78 247.19C716.307 247.81 715.67 248.12 714.87 248.12ZM714.87 247.1C715.35 247.1 715.724 246.887 715.99 246.46C716.264 246.033 716.4 245.437 716.4 244.67C716.4 244.163 716.337 243.73 716.21 243.37C716.09 243.003 715.914 242.727 715.68 242.54C715.454 242.347 715.184 242.25 714.87 242.25C714.55 242.25 714.274 242.347 714.04 242.54C713.807 242.727 713.63 243.003 713.51 243.37C713.39 243.73 713.33 244.163 713.33 244.67C713.33 245.437 713.464 246.033 713.73 246.46C714.004 246.887 714.384 247.1 714.87 247.1Z" fill="#9FA2B4"/>
<path d="M711.342 189.7V190.65H710.702V192H709.662V190.65H706.352V190.43L708.622 185.35H709.722L707.782 189.7H709.682L709.862 187.85H710.702V189.7H711.342ZM714.87 192.12C714.064 192.12 713.424 191.81 712.95 191.19C712.477 190.57 712.24 189.73 712.24 188.67C712.24 187.61 712.474 186.773 712.94 186.16C713.414 185.54 714.057 185.23 714.87 185.23C715.677 185.23 716.314 185.54 716.78 186.16C717.254 186.773 717.49 187.61 717.49 188.67C717.49 189.73 717.254 190.57 716.78 191.19C716.307 191.81 715.67 192.12 714.87 192.12ZM714.87 191.1C715.35 191.1 715.724 190.887 715.99 190.46C716.264 190.033 716.4 189.437 716.4 188.67C716.4 188.163 716.337 187.73 716.21 187.37C716.09 187.003 715.914 186.727 715.68 186.54C715.454 186.347 715.184 186.25 714.87 186.25C714.55 186.25 714.274 186.347 714.04 186.54C713.807 186.727 713.63 187.003 713.51 187.37C713.39 187.73 713.33 188.163 713.33 188.67C713.33 189.437 713.464 190.033 713.73 190.46C714.004 190.887 714.384 191.1 714.87 191.1Z" fill="#9FA2B4"/>
<path d="M708.898 131.74C709.578 131.74 710.135 131.947 710.568 132.36C711.008 132.773 711.228 133.29 711.228 133.91C711.228 134.543 711.012 135.07 710.578 135.49C710.145 135.91 709.605 136.12 708.958 136.12C708.318 136.12 707.785 135.92 707.358 135.52C706.938 135.12 706.718 134.61 706.698 133.99H707.778C707.792 134.317 707.908 134.583 708.128 134.79C708.348 134.997 708.625 135.1 708.958 135.1C709.298 135.1 709.578 134.987 709.798 134.76C710.025 134.533 710.138 134.25 710.138 133.91C710.138 133.797 710.122 133.687 710.088 133.58C710.062 133.473 710.022 133.377 709.968 133.29C709.915 133.197 709.848 133.113 709.768 133.04C709.695 132.967 709.612 132.903 709.518 132.85C709.425 132.797 709.322 132.757 709.208 132.73C709.102 132.703 708.985 132.69 708.858 132.69H707.098L706.968 132.54L707.328 129.35H710.768V130.33H708.198L708.048 131.74H708.898ZM714.87 136.12C714.064 136.12 713.424 135.81 712.95 135.19C712.477 134.57 712.24 133.73 712.24 132.67C712.24 131.61 712.474 130.773 712.94 130.16C713.414 129.54 714.057 129.23 714.87 129.23C715.677 129.23 716.314 129.54 716.78 130.16C717.254 130.773 717.49 131.61 717.49 132.67C717.49 133.73 717.254 134.57 716.78 135.19C716.307 135.81 715.67 136.12 714.87 136.12ZM714.87 135.1C715.35 135.1 715.724 134.887 715.99 134.46C716.264 134.033 716.4 133.437 716.4 132.67C716.4 132.163 716.337 131.73 716.21 131.37C716.09 131.003 715.914 130.727 715.68 130.54C715.454 130.347 715.184 130.25 714.87 130.25C714.55 130.25 714.274 130.347 714.04 130.54C713.807 130.727 713.63 131.003 713.51 131.37C713.39 131.73 713.33 132.163 713.33 132.67C713.33 133.437 713.464 134.033 713.73 134.46C714.004 134.887 714.384 135.1 714.87 135.1Z" fill="#9FA2B4"/>
<path d="M709.105 75.63C709.725 75.63 710.252 75.8333 710.685 76.24C711.125 76.64 711.345 77.16 711.345 77.8C711.345 78.2467 711.242 78.6467 711.035 79C710.829 79.3533 710.539 79.63 710.165 79.83C709.799 80.0233 709.382 80.12 708.915 80.12C708.195 80.12 707.605 79.9033 707.145 79.47C706.692 79.0367 706.465 78.48 706.465 77.8C706.465 77.1867 706.705 76.4633 707.185 75.63L708.515 73.31H709.695C708.929 74.67 708.469 75.4933 708.315 75.78C708.575 75.68 708.839 75.63 709.105 75.63ZM708.905 79.1C709.299 79.1 709.622 78.98 709.875 78.74C710.129 78.4933 710.255 78.18 710.255 77.8C710.255 77.4133 710.129 77.1 709.875 76.86C709.622 76.6133 709.299 76.49 708.905 76.49C708.652 76.49 708.422 76.5467 708.215 76.66C708.009 76.7733 707.845 76.93 707.725 77.13C707.612 77.3233 707.555 77.5467 707.555 77.8C707.555 78.18 707.682 78.4933 707.935 78.74C708.195 78.98 708.519 79.1 708.905 79.1ZM714.87 80.12C714.064 80.12 713.424 79.81 712.95 79.19C712.477 78.57 712.24 77.73 712.24 76.67C712.24 75.61 712.474 74.7733 712.94 74.16C713.414 73.54 714.057 73.23 714.87 73.23C715.677 73.23 716.314 73.54 716.78 74.16C717.254 74.7733 717.49 75.61 717.49 76.67C717.49 77.73 717.254 78.57 716.78 79.19C716.307 79.81 715.67 80.12 714.87 80.12ZM714.87 79.1C715.35 79.1 715.724 78.8867 715.99 78.46C716.264 78.0333 716.4 77.4367 716.4 76.67C716.4 76.1633 716.337 75.73 716.21 75.37C716.09 75.0033 715.914 74.7267 715.68 74.54C715.454 74.3467 715.184 74.25 714.87 74.25C714.55 74.25 714.274 74.3467 714.04 74.54C713.807 74.7267 713.63 75.0033 713.51 75.37C713.39 75.73 713.33 76.1633 713.33 76.67C713.33 77.4367 713.464 78.0333 713.73 78.46C714.004 78.8867 714.384 79.1 714.87 79.1Z" fill="#9FA2B4"/>
<mask id="mask0" mask-type="alpha" maskUnits="userSpaceOnUse" x="32" y="90" width="686" height="336">
<rect x="32" y="90" width="686" height="336" fill="#C4C4C4"/>
</mask>
<g mask="url(#mask0)">
<path opacity="0.1" d="M142.05 260.337C88.1396 258.676 36.8741 336.678 23 369.203V472H718V215.441C653.682 212.94 633.342 156.532 584.039 156.532C534.737 156.532 490.224 238.191 465.118 281.097C444.506 319.296 418.211 327.462 407.64 326.77C358.486 328.431 321.092 243.036 308.539 200.13C297.44 151.964 284.944 142 278.809 142C268.516 141.969 253.043 156.117 237.187 204.282C221.331 252.447 196.225 265.873 185.655 266.565C170.869 267.533 153.282 260.337 142.05 260.337Z" fill="url(#paint0_linear)"/>
<path opacity="0.2" d="M23.4044 244.915C44.4704 235.6 60.1722 234.318 72.7805 237.501C85.4038 240.687 95.0839 248.387 104.046 257.369C108.533 261.866 112.8 266.641 117.185 271.333C121.556 276.01 126.024 280.582 130.855 284.594C140.536 292.634 151.703 298.449 166.557 298.449V296.449C152.304 296.449 141.574 290.896 132.133 283.055C127.403 279.127 123.004 274.63 118.646 269.967C114.302 265.319 109.979 260.483 105.461 255.956C96.4121 246.887 86.419 238.881 73.27 235.562C60.106 232.238 43.9365 233.65 22.5956 243.085L23.4044 244.915ZM166.557 298.449C181.284 298.449 191.377 294.981 199.263 289.58C207.111 284.205 212.71 276.953 218.48 269.58C224.272 262.176 230.264 254.609 238.959 248.324C247.635 242.053 259.052 237.027 275.706 234.836L275.445 232.853C258.494 235.084 246.757 240.22 237.787 246.703C228.836 253.174 222.689 260.955 216.905 268.347C211.098 275.769 205.682 282.76 198.133 287.93C190.623 293.073 180.937 296.449 166.557 296.449V298.449ZM275.706 234.836C292.211 232.664 307.228 237.592 321.374 246.302C335.537 255.022 348.761 267.492 361.662 280.315C374.529 293.105 387.093 306.267 399.839 316.208C412.587 326.151 425.673 333 439.632 333V331C426.337 331 413.69 324.474 401.069 314.631C388.446 304.786 376.004 291.75 363.072 278.896C350.173 266.075 336.804 253.453 322.423 244.598C308.024 235.733 292.544 230.603 275.445 232.853L275.706 234.836ZM439.632 333C453.731 333 465.797 323.754 476.204 310.267C486.628 296.758 495.548 278.789 503.328 260.899C507.22 251.947 510.834 242.998 514.211 234.62C517.59 226.236 520.727 218.432 523.676 211.747C526.628 205.052 529.367 199.535 531.94 195.702C533.226 193.785 534.442 192.334 535.587 191.371C536.735 190.407 537.729 190 538.596 190V188C537.081 188 535.644 188.71 534.3 189.84C532.953 190.973 531.617 192.594 530.279 194.587C527.603 198.575 524.805 204.229 521.846 210.94C518.882 217.661 515.731 225.498 512.356 233.872C508.978 242.252 505.374 251.178 501.494 260.101C493.727 277.961 484.886 295.742 474.621 309.045C464.338 322.371 452.788 331 439.632 331V333ZM538.596 190C540.602 190 542.259 190.933 543.748 192.749C545.263 194.596 546.55 197.297 547.75 200.664C548.946 204.019 550.026 207.946 551.165 212.198C552.301 216.438 553.493 220.992 554.906 225.546C557.728 234.642 561.466 243.87 567.536 250.829C573.646 257.834 582.086 262.5 594.163 262.5V260.5C582.691 260.5 574.791 256.104 569.043 249.515C563.256 242.88 559.618 233.983 556.816 224.954C555.418 220.446 554.237 215.937 553.097 211.681C551.96 207.437 550.861 203.434 549.634 199.992C548.411 196.562 547.032 193.599 545.295 191.481C543.533 189.333 541.352 188 538.596 188V190ZM594.163 262.5C618.048 262.5 637.415 250.361 656.535 238.217C675.737 226.021 694.692 213.818 718.035 212.999L717.965 211.001C693.988 211.842 674.574 224.39 655.463 236.529C636.27 248.719 617.379 260.5 594.163 260.5V262.5Z" fill="#FAA61A"/>
<path d="M142.05 260.231L142.02 261.231C142.03 261.231 142.04 261.231 142.05 261.231L142.05 260.231ZM185.655 266.453L185.72 267.451L185.655 266.453ZM278.809 142L278.806 143H278.809L278.809 142ZM308.54 200.078L307.565 200.303C307.569 200.322 307.574 200.341 307.58 200.359L308.54 200.078ZM407.64 326.605L407.705 325.607C407.672 325.605 407.639 325.604 407.606 325.605L407.64 326.605ZM465.119 280.972L464.256 280.467C464.25 280.477 464.244 280.487 464.239 280.497L465.119 280.972ZM23.9197 369.393C30.8133 353.246 47.0376 325.735 68.2502 302.481C89.5036 279.183 115.531 260.416 142.02 261.231L142.081 259.232C114.659 258.388 88.0982 277.756 66.7727 301.133C45.4063 324.555 29.0608 352.258 22.0803 368.607L23.9197 369.393ZM142.05 261.231C147.526 261.231 154.583 262.989 162.306 264.682C169.947 266.356 178.169 267.945 185.72 267.451L185.589 265.455C178.355 265.928 170.39 264.406 162.734 262.728C155.159 261.068 147.806 259.231 142.05 259.231L142.05 261.231ZM185.72 267.451C196.873 266.722 222.219 252.85 238.137 204.539L236.237 203.914C220.443 251.847 195.578 264.802 185.589 265.455L185.72 267.451ZM238.137 204.539C246.048 180.529 253.839 165.078 260.885 155.655C267.952 146.203 274.133 142.986 278.806 143L278.812 141C273.192 140.983 266.49 144.818 259.283 154.457C252.055 164.125 244.182 179.803 236.237 203.914L238.137 204.539ZM278.809 143C281.34 143 285.737 145.099 290.963 153.52C296.159 161.892 302.027 176.291 307.565 200.303L309.514 199.853C303.953 175.743 298.023 161.103 292.662 152.466C287.333 143.878 282.414 141 278.809 141L278.809 143ZM307.58 200.359C313.874 221.855 326.396 253.997 343.524 280.58C352.088 293.872 361.832 305.819 372.562 314.346C383.296 322.877 395.076 328.03 407.674 327.604L407.606 325.605C395.628 326.01 384.3 321.12 373.806 312.78C363.308 304.438 353.703 292.686 345.205 279.497C328.21 253.12 315.757 221.168 309.499 199.797L307.58 200.359ZM407.575 327.603C418.634 328.326 445.252 319.861 465.998 281.447L464.239 280.497C443.76 318.415 417.788 326.266 407.705 325.607L407.575 327.603ZM465.981 281.477C478.551 260.015 495.914 228.978 516.288 203.292C526.473 190.452 537.379 178.991 548.775 170.747C560.172 162.502 571.996 157.519 584.039 157.519V155.519C571.432 155.519 559.203 160.734 547.603 169.126C536.002 177.519 524.966 189.134 514.722 202.049C494.238 227.873 476.791 259.062 464.256 280.467L465.981 281.477ZM584.039 157.519C608.295 157.519 625.428 171.354 644.791 185.811C664.099 200.228 685.476 215.112 717.961 216.374L718.039 214.376C686.206 213.139 665.254 198.595 645.987 184.209C626.775 169.863 609.086 155.519 584.039 155.519V157.519Z" fill="#FAA61A"/>
</g>
<circle opacity="0.16" cx="581" cy="157" r="13" stroke="#FAA61A" stroke-width="2"/>
<g filter="url(#filter0_d)">
<circle cx="581" cy="157" r="7" fill="white"/>
<circle cx="581" cy="157" r="5" stroke="#FAA61A" stroke-width="4"/>
</g>
<g filter="url(#filter1_d)">
<mask id="path-53-outside-1" maskUnits="userSpaceOnUse" x="548" y="95" width="66" height="38" fill="black">
<rect fill="white" x="548" y="95" width="66" height="38"/>
<path fill-rule="evenodd" clip-rule="evenodd" d="M553 96H609C611.209 96 613 97.7909 613 100V122C613 124.209 611.209 126 609 126L588 126L581.26 131.777C581.111 131.905 580.889 131.905 580.74 131.777L574 126L553 126C550.791 126 549 124.209 549 122V100C549 97.7909 550.791 96 553 96Z"/>
</mask>
<path fill-rule="evenodd" clip-rule="evenodd" d="M553 96H609C611.209 96 613 97.7909 613 100V122C613 124.209 611.209 126 609 126L588 126L581.26 131.777C581.111 131.905 580.889 131.905 580.74 131.777L574 126L553 126C550.791 126 549 124.209 549 122V100C549 97.7909 550.791 96 553 96Z" fill="white"/>
<path d="M609 126V126.5V126ZM588 126V125.5H587.815L587.675 125.62L588 126ZM581.26 131.777L580.935 131.397L580.935 131.397L581.26 131.777ZM580.74 131.777L581.065 131.397L581.065 131.397L580.74 131.777ZM574 126L574.325 125.62L574.185 125.5H574V126ZM553 126V126.5V126ZM609 95.5H553V96.5H609V95.5ZM613.5 100C613.5 97.5147 611.485 95.5 609 95.5V96.5C610.933 96.5 612.5 98.067 612.5 100H613.5ZM613.5 122V100H612.5V122H613.5ZM609 126.5C611.485 126.5 613.5 124.485 613.5 122H612.5C612.5 123.933 610.933 125.5 609 125.5V126.5ZM588 126.5L609 126.5V125.5L588 125.5V126.5ZM587.675 125.62L580.935 131.397L581.586 132.156L588.325 126.38L587.675 125.62ZM580.935 131.397C580.972 131.365 581.028 131.365 581.065 131.397L580.414 132.156C580.751 132.445 581.249 132.445 581.586 132.156L580.935 131.397ZM581.065 131.397L574.325 125.62L573.675 126.38L580.414 132.156L581.065 131.397ZM553 126.5L574 126.5V125.5L553 125.5V126.5ZM548.5 122C548.5 124.485 550.515 126.5 553 126.5V125.5C551.067 125.5 549.5 123.933 549.5 122H548.5ZM548.5 100V122H549.5V100H548.5ZM553 95.5C550.515 95.5 548.5 97.5147 548.5 100H549.5C549.5 98.067 551.067 96.5 553 96.5V95.5Z" fill="#DFE0EB" mask="url(#path-53-outside-1)"/>
</g>
<path d="M578.075 110.876C578.654 111.044 579.097 111.333 579.405 111.744C579.713 112.155 579.867 112.673 579.867 113.298C579.867 114.166 579.559 114.852 578.943 115.356C578.337 115.851 577.511 116.098 576.465 116.098C575.803 116.098 575.168 115.995 574.561 115.79C573.964 115.575 573.465 115.277 573.063 114.894L573.581 113.83C574.477 114.558 575.425 114.922 576.423 114.922C577.786 114.922 578.467 114.348 578.467 113.2C578.467 112.64 578.29 112.225 577.935 111.954C577.581 111.674 577.044 111.534 576.325 111.534H575.107V110.358H576.101C576.792 110.358 577.319 110.213 577.683 109.924C578.047 109.635 578.229 109.215 578.229 108.664C578.229 108.16 578.075 107.773 577.767 107.502C577.469 107.231 577.044 107.096 576.493 107.096C575.56 107.096 574.636 107.46 573.721 108.188L573.203 107.124C573.595 106.751 574.09 106.457 574.687 106.242C575.294 106.027 575.919 105.92 576.563 105.92C577.497 105.92 578.239 106.153 578.789 106.62C579.349 107.077 579.629 107.698 579.629 108.482C579.629 109.051 579.494 109.546 579.223 109.966C578.953 110.386 578.57 110.689 578.075 110.876ZM586.796 110.876C587.44 111.053 587.939 111.357 588.294 111.786C588.658 112.215 588.84 112.733 588.84 113.34C588.84 114.199 588.509 114.875 587.846 115.37C587.193 115.855 586.311 116.098 585.2 116.098C584.089 116.098 583.203 115.855 582.54 115.37C581.887 114.875 581.56 114.199 581.56 113.34C581.56 112.724 581.742 112.201 582.106 111.772C582.47 111.343 582.979 111.044 583.632 110.876C583.053 110.689 582.601 110.395 582.274 109.994C581.957 109.593 581.798 109.121 581.798 108.58C581.798 108.048 581.943 107.581 582.232 107.18C582.521 106.779 582.923 106.471 583.436 106.256C583.949 106.032 584.537 105.92 585.2 105.92C585.863 105.92 586.451 106.032 586.964 106.256C587.477 106.471 587.879 106.779 588.168 107.18C588.457 107.581 588.602 108.048 588.602 108.58C588.602 109.121 588.443 109.597 588.126 110.008C587.809 110.409 587.365 110.699 586.796 110.876ZM583.184 108.706C583.184 109.191 583.366 109.588 583.73 109.896C584.094 110.195 584.584 110.386 585.2 110.47C585.816 110.386 586.306 110.195 586.67 109.896C587.034 109.588 587.216 109.191 587.216 108.706C587.216 108.193 587.034 107.796 586.67 107.516C586.315 107.227 585.825 107.082 585.2 107.082C584.575 107.082 584.08 107.227 583.716 107.516C583.361 107.796 583.184 108.193 583.184 108.706ZM585.2 114.936C585.919 114.936 586.474 114.791 586.866 114.502C587.258 114.213 587.454 113.793 587.454 113.242C587.454 112.729 587.249 112.323 586.838 112.024C586.437 111.716 585.891 111.52 585.2 111.436C584.509 111.52 583.959 111.716 583.548 112.024C583.147 112.323 582.946 112.729 582.946 113.242C582.946 113.793 583.142 114.213 583.534 114.502C583.926 114.791 584.481 114.936 585.2 114.936Z" fill="#252733"/>
</g>
<defs>
<filter id="filter0_d" x="572" y="149" width="18" height="18" filterUnits="userSpaceOnUse" color-interpolation-filters="sRGB">
<feFlood flood-opacity="0" result="BackgroundImageFix"/>
<feColorMatrix in="SourceAlpha" type="matrix" values="0 0 0 0 0 0 0 0 0 0 0 0 0 0 0 0 0 0 127 0"/>
<feOffset dy="1"/>
<feGaussianBlur stdDeviation="1"/>
<feColorMatrix type="matrix" values="0 0 0 0 0.215686 0 0 0 0 0.317647 0 0 0 0 1 0 0 0 0.2 0"/>
<feBlend mode="normal" in2="BackgroundImageFix" result="effect1_dropShadow"/>
<feBlend mode="normal" in="SourceGraphic" in2="effect1_dropShadow" result="shape"/>
</filter>
<filter id="filter1_d" x="544.5" y="92.5" width="73" height="44.8732" filterUnits="userSpaceOnUse" color-interpolation-filters="sRGB">
<feFlood flood-opacity="0" result="BackgroundImageFix"/>
<feColorMatrix in="SourceAlpha" type="matrix" values="0 0 0 0 0 0 0 0 0 0 0 0 0 0 0 0 0 0 127 0"/>
<feOffset dy="1"/>
<feGaussianBlur stdDeviation="2"/>
<feColorMatrix type="matrix" values="0 0 0 0 0 0 0 0 0 0 0 0 0 0 0 0 0 0 0.08 0"/>
<feBlend mode="normal" in2="BackgroundImageFix" result="effect1_dropShadow"/>
<feBlend mode="normal" in="SourceGraphic" in2="effect1_dropShadow" result="shape"/>
</filter>
<linearGradient id="paint0_linear" x1="33.0397" y1="315.964" x2="695.46" y2="316.594" gradientUnits="userSpaceOnUse">
<stop stop-color="#FAA61A"/>
<stop offset="1" stop-color="#FAA61A" stop-opacity="0"/>
</linearGradient>
<clipPath id="clip0">
<rect width="686" height="380" fill="white" transform="translate(32 71)"/>
</clipPath>
<clipPath id="clip1">
<rect width="715" height="13" fill="white" transform="translate(32 438)"/>
</clipPath>
</defs>
</svg>
