<svg width="17" height="17" viewBox="0 0 17 17" fill="none" xmlns="http://www.w3.org/2000/svg">
<g clip-path="url(#clip0)">
<path d="M14.1065 9.22819C13.8316 8.8811 13.9103 8.72669 14.1065 8.41644C14.11 8.4129 16.3788 5.27781 16.6125 4.2146L16.614 4.2139C16.7301 3.82644 16.614 3.54169 16.0522 3.54169H14.1936C13.7204 3.54169 13.5022 3.78606 13.3854 4.05948C13.3854 4.05948 12.439 6.32473 11.1003 7.7931C10.6682 8.2174 10.4685 8.3534 10.2326 8.3534C10.1164 8.3534 9.93579 8.2174 9.93579 7.82994V4.2139C9.93579 3.74923 9.80333 3.54169 9.41162 3.54169H6.48904C6.19225 3.54169 6.01587 3.75844 6.01587 3.96031C6.01587 4.4009 6.68525 4.50219 6.75467 5.74177V8.43131C6.75467 9.02065 6.64771 9.12902 6.41042 9.12902C5.77858 9.12902 4.24504 6.85456 3.33625 4.25144C3.15279 3.7464 2.97358 3.5424 2.49688 3.5424H0.6375C0.106958 3.5424 0 3.78677 0 4.06019C0 4.54327 0.631833 6.94523 2.93817 10.1186C4.47525 12.2846 6.63992 13.4584 8.60908 13.4584C9.79271 13.4584 9.93721 13.1977 9.93721 12.7493C9.93721 10.6796 9.83025 10.4841 10.4231 10.4841C10.698 10.4841 11.1711 10.6201 12.2761 11.6649C13.5391 12.9037 13.7466 13.4584 14.4535 13.4584H16.3122C16.842 13.4584 17.1105 13.1977 16.9561 12.6834C16.6026 11.6018 14.2141 9.37694 14.1065 9.22819Z" fill="#4B729F"/>
</g>
<defs>
<clipPath id="clip0">
<rect width="17" height="17" fill="white"/>
</clipPath>
</defs>
</svg>
