<svg width="15" height="15" viewBox="0 0 15 15" fill="none" xmlns="http://www.w3.org/2000/svg">
<path d="M12.4469 9.14256C12.2044 8.83631 12.2738 8.70006 12.4469 8.42631C12.45 8.42319 14.4519 5.65694 14.6581 4.71881L14.6594 4.71819C14.7619 4.37631 14.6594 4.12506 14.1638 4.12506H12.5238C12.1062 4.12506 11.9137 4.34069 11.8106 4.58194C11.8106 4.58194 10.9756 6.58069 9.79437 7.87631C9.41313 8.25069 9.23688 8.37069 9.02875 8.37069C8.92625 8.37069 8.76688 8.25069 8.76688 7.90881V4.71819C8.76688 4.30819 8.65 4.12506 8.30437 4.12506H5.72563C5.46375 4.12506 5.30813 4.31631 5.30813 4.49444C5.30813 4.88319 5.89875 4.97256 5.96 6.06631V8.43944C5.96 8.95944 5.86562 9.05506 5.65625 9.05506C5.09875 9.05506 3.74563 7.04819 2.94375 4.75131C2.78188 4.30569 2.62375 4.12569 2.20312 4.12569H0.5625C0.094375 4.12569 0 4.34131 0 4.58256C0 5.00881 0.5575 7.12819 2.5925 9.92819C3.94875 11.8394 5.85875 12.8751 7.59625 12.8751C8.64062 12.8751 8.76813 12.6451 8.76813 12.2494C8.76813 10.4232 8.67375 10.2507 9.19687 10.2507C9.43937 10.2507 9.85687 10.3707 10.8319 11.2926C11.9462 12.3857 12.1294 12.8751 12.7531 12.8751H14.3931C14.8606 12.8751 15.0975 12.6451 14.9613 12.1913C14.6494 11.2369 12.5419 9.27381 12.4469 9.14256Z" fill="white"/>
</svg>
