<svg width="98" height="309" viewBox="0 0 98 309" fill="none" xmlns="http://www.w3.org/2000/svg">
<path opacity="0.15" d="M35.1426 256.07C34.6494 280.039 57.8136 302.832 67.4726 309L98 309L98 -4.48701e-06L21.8096 -9.98571e-07C21.067 28.5961 4.31556 37.6393 4.31556 59.5595C4.31556 81.4797 28.5658 101.27 41.3075 112.432C52.6517 121.597 55.0767 133.288 54.8712 137.987C55.3644 159.841 30.0045 176.467 17.2629 182.048C2.95913 186.983 -7.19687e-06 192.538 1.03928e-05 195.266C-0.00921119 199.843 4.19243 206.722 18.496 213.772C32.7995 220.821 36.7864 231.983 36.9919 236.683C37.2794 243.257 35.1425 251.076 35.1426 256.07Z" fill="url(#paint0_linear)"/>
<defs>
<linearGradient id="paint0_linear" x1="51.662" y1="304.536" x2="52.0816" y2="10.0218" gradientUnits="userSpaceOnUse">
<stop stop-color="#FAA61A"/>
<stop offset="1" stop-color="#FAA61A" stop-opacity="0"/>
</linearGradient>
</defs>
</svg>
